<svg xmlns="http://www.w3.org/2000/svg" width="675" height="135" xml:space="preserve"><defs><clipPath id="a"><path d="M0 0h540v108H0V0z"/></clipPath></defs><g clip-path="url(#a)" transform="matrix(1.25 0 0 -1.25 0 135)"><path d="M0 108h540V0H0v108z" style="fill:#fff;fill-opacity:0;fill-rule:evenodd;stroke:none"/><path d="M446.4 43.2h-28.8v18h57.6v-18h-28.8z" style="fill:none;stroke:#000;stroke-width:.70749998;stroke-linecap:butt;stroke-linejoin:round;stroke-miterlimit:10;stroke-opacity:1;stroke-dasharray:none"/><text transform="matrix(1 0 0 -1 433.7 48.8)"><tspan x="0 5.5 12.7 18.200001" y="0" style="font-size:10px;font-variant:normal;font-weight:400;writing-mode:lr-tb;fill:#1a1a1a;fill-opacity:1;fill-rule:nonzero;stroke:none;font-family:Liberation Sans;-inkscape-font-specification:LiberationSans">qNaN</tspan></text><path d="M100.8 43.2H72v18h57.6v-18h-28.8z" style="fill:none;stroke:#000;stroke-width:.70749998;stroke-linecap:butt;stroke-linejoin:round;stroke-miterlimit:10;stroke-opacity:1;stroke-dasharray:none"/><text transform="matrix(1 0 0 -1 79.4 48.8)"><tspan x="0 6.0999999 13.3 20.5 27.190001 34.389999" y="0" style="font-size:10px;font-variant:normal;font-weight:400;writing-mode:lr-tb;fill:#1a1a1a;fill-opacity:1;fill-rule:nonzero;stroke:none;font-family:Liberation Sans;-inkscape-font-specification:LiberationSans">FCNVDS</tspan></text><path d="M39.6 43.2H7.2v18H72v-18H39.6z" style="fill:none;stroke:#000;stroke-width:.70749998;stroke-linecap:butt;stroke-linejoin:round;stroke-miterlimit:10;stroke-opacity:1;stroke-dasharray:none"/><text transform="matrix(1 0 0 -1 11.6 48.8)"><tspan x="0 6.0999999 13.3 20.5 27.1 34.299999 40.990002 43.689999 46.990002 52.580002" y="0" style="font-size:10px;font-variant:normal;font-weight:400;writing-mode:lr-tb;fill:#1a1a1a;fill-opacity:1;fill-rule:nonzero;stroke:none;font-family:Liberation Sans;-inkscape-font-specification:LiberationSans">FCNVDS (n)</tspan></text><path d="M100.8 61.2H72v18h57.6v-18h-28.8z" style="fill:none;stroke:#000;stroke-width:.70749998;stroke-linecap:butt;stroke-linejoin:round;stroke-miterlimit:10;stroke-opacity:1;stroke-dasharray:none"/><text transform="matrix(1 0 0 -1 82.7 66.8)"><tspan x="0 5.6999998 12.9 20.690001 27.889999" y="0" style="font-size:10px;font-variant:normal;font-weight:400;writing-mode:lr-tb;fill:#1a1a1a;fill-opacity:1;fill-rule:nonzero;stroke:none;font-family:Liberation Sans;-inkscape-font-specification:LiberationSans">+NORM</tspan></text><path d="M158.4 61.2h-28.8v18h57.6v-18h-28.8z" style="fill:none;stroke:#000;stroke-width:.70749998;stroke-linecap:butt;stroke-linejoin:round;stroke-miterlimit:10;stroke-opacity:1;stroke-dasharray:none"/><text transform="matrix(1 0 0 -1 141.5 66.8)"><tspan x="0 3.3900001 10.59 18.290001 25.49" y="0" style="font-size:10px;font-variant:normal;font-weight:400;writing-mode:lr-tb;fill:#1a1a1a;fill-opacity:1;fill-rule:nonzero;stroke:none;font-family:Liberation Sans;-inkscape-font-specification:LiberationSans">-NORM</tspan></text><path d="M216 61.2h-28.8v18h57.6v-18H216z" style="fill:none;stroke:#000;stroke-width:.70749998;stroke-linecap:butt;stroke-linejoin:round;stroke-miterlimit:10;stroke-opacity:1;stroke-dasharray:none"/><text transform="matrix(1 0 0 -1 210.4 66.8)"><tspan x="0 5.6999998" y="0" style="font-size:10px;font-variant:normal;font-weight:400;writing-mode:lr-tb;fill:#1a1a1a;fill-opacity:1;fill-rule:nonzero;stroke:none;font-family:Liberation Sans;-inkscape-font-specification:LiberationSans">+0</tspan></text><path d="M273.6 61.2h-28.8v18h57.6v-18h-28.8z" style="fill:none;stroke:#000;stroke-width:.70749998;stroke-linecap:butt;stroke-linejoin:round;stroke-miterlimit:10;stroke-opacity:1;stroke-dasharray:none"/><text transform="matrix(1 0 0 -1 269.2 66.8)"><tspan x="0 3.3900001" y="0" style="font-size:10px;font-variant:normal;font-weight:400;writing-mode:lr-tb;fill:#1a1a1a;fill-opacity:1;fill-rule:nonzero;stroke:none;font-family:Liberation Sans;-inkscape-font-specification:LiberationSans">-0</tspan></text><path d="M331.2 61.2h-28.8v18H360v-18h-28.8z" style="fill:none;stroke:#000;stroke-width:.70749998;stroke-linecap:butt;stroke-linejoin:round;stroke-miterlimit:10;stroke-opacity:1;stroke-dasharray:none"/><text transform="matrix(1 0 0 -1 323.1 66.8)"><tspan x="0 5.6999998 7.9000001 13.4" y="0" style="font-size:10px;font-variant:normal;font-weight:400;writing-mode:lr-tb;fill:#1a1a1a;fill-opacity:1;fill-rule:nonzero;stroke:none;font-family:Liberation Sans;-inkscape-font-specification:LiberationSans">+inf</tspan></text><path d="M388.8 61.2H360v18h57.6v-18h-28.8z" style="fill:none;stroke:#000;stroke-width:.70749998;stroke-linecap:butt;stroke-linejoin:round;stroke-miterlimit:10;stroke-opacity:1;stroke-dasharray:none"/><text transform="matrix(1 0 0 -1 381.9 66.8)"><tspan x="0 3.3900001 5.4899998 10.99" y="0" style="font-size:10px;font-variant:normal;font-weight:400;writing-mode:lr-tb;fill:#1a1a1a;fill-opacity:1;fill-rule:nonzero;stroke:none;font-family:Liberation Sans;-inkscape-font-specification:LiberationSans">-inf</tspan></text><path d="M302.4 79.2H72v18h460.8v-18H302.4z" style="fill:none;stroke:#000;stroke-width:.70749998;stroke-linecap:butt;stroke-linejoin:round;stroke-miterlimit:10;stroke-opacity:1;stroke-dasharray:none"/><text transform="matrix(1 0 0 -1 299.7 84.8)"><tspan x="0" y="0" style="font-size:10px;font-variant:normal;font-weight:400;writing-mode:lr-tb;fill:#1a1a1a;fill-opacity:1;fill-rule:nonzero;stroke:none;font-family:Liberation Sans;-inkscape-font-specification:LiberationSans">n</tspan></text><path d="M446.4 61.2h-28.8v18h57.6v-18h-28.8z" style="fill:none;stroke:#000;stroke-width:.70749998;stroke-linecap:butt;stroke-linejoin:round;stroke-miterlimit:10;stroke-opacity:1;stroke-dasharray:none"/><text transform="matrix(1 0 0 -1 433.7 66.8)"><tspan x="0 5.5 12.7 18.200001" y="0" style="font-size:10px;font-variant:normal;font-weight:400;writing-mode:lr-tb;fill:#1a1a1a;fill-opacity:1;fill-rule:nonzero;stroke:none;font-family:Liberation Sans;-inkscape-font-specification:LiberationSans">qNaN</tspan></text><path d="M504 61.2h-28.8v18h57.6v-18H504z" style="fill:none;stroke:#000;stroke-width:.70749998;stroke-linecap:butt;stroke-linejoin:round;stroke-miterlimit:10;stroke-opacity:1;stroke-dasharray:none"/><text transform="matrix(1 0 0 -1 491.5 66.8)"><tspan x="0 5.0900002 12.29 17.790001" y="0" style="font-size:10px;font-variant:normal;font-weight:400;writing-mode:lr-tb;fill:#1a1a1a;fill-opacity:1;fill-rule:nonzero;stroke:none;font-family:Liberation Sans;-inkscape-font-specification:LiberationSans">sNaN</tspan></text><text transform="matrix(1 0 0 -1 21.5 26.1)"><tspan x="0 7.8979998 14.003 17.094 23.287001" y="0" style="font-size:11px;font-variant:normal;font-weight:400;writing-mode:lr-tb;fill:#1a1a1a;fill-opacity:1;fill-rule:nonzero;stroke:none;font-family:Liberation Sans;-inkscape-font-specification:LiberationSans">Note:</tspan></text><text transform="matrix(1 0 0 -1 57.5 26.1)"><tspan x="0 10.384 16.489 22.681999 28.787001 31.878 39.776001 47.762001 50.853001 57.342999 60.433998 66.539001 69.629997 72.721001 75.911003 82.015999 88.121002 91.211998 96.711998 102.817 105.303 111.408 117.513 120.604 126.709 129.899 132.99001 139.095 142.186 148.291 154.48399 160.589 166.694 170.379 179.66299 185.76801 188.166 190.564 196.064 202.16901 208.274 211.36501 217.558 223.66299 232.84801 238.953 245.146 248.83099 251.922 254.32001 259.82001 263.01001 266.10101 269.78601 275.89099 281.996 285.186 291.29099 297.396 300.487 306.59201 312.09201 315.28201 321.38699" y="0" style="font-size:11px;font-variant:normal;font-weight:400;writing-mode:lr-tb;fill:#1a1a1a;fill-opacity:1;fill-rule:nonzero;stroke:none;font-family:Liberation Sans;-inkscape-font-specification:LiberationSans">When DN = 1, the value of a denormalized number is treated as 0.</tspan></text><path d="M504 43.2h-28.8v18h57.6v-18H504z" style="fill:#b3b3b3;fill-opacity:1;fill-rule:evenodd;stroke:none"/><path d="M504 43.2h-28.8v18h57.6v-18H504z" style="fill:none;stroke:#000;stroke-width:.70749998;stroke-linecap:butt;stroke-linejoin:round;stroke-miterlimit:10;stroke-opacity:1;stroke-dasharray:none"/><text transform="matrix(1 0 0 -1 489.9 48.8)"><tspan x="0 2.2 7.6999998 12.79 18.290001 20.389999 22.59" y="0" style="font-size:10px;font-variant:normal;font-weight:400;writing-mode:lr-tb;fill:#1a1a1a;fill-opacity:1;fill-rule:nonzero;stroke:none;font-family:Liberation Sans;-inkscape-font-specification:LiberationSans">invalid</tspan></text><path d="M72 61.2v-18M72 61.2h460.8" style="fill:none;stroke:#000;stroke-width:2.15078998;stroke-linecap:butt;stroke-linejoin:round;stroke-miterlimit:10;stroke-opacity:1;stroke-dasharray:none"/><path d="M388.8 43.2H360v18h57.6v-18h-28.8z" style="fill:none;stroke:#000;stroke-width:.70749998;stroke-linecap:butt;stroke-linejoin:round;stroke-miterlimit:10;stroke-opacity:1;stroke-dasharray:none"/><text transform="matrix(1 0 0 -1 381.9 48.8)"><tspan x="0 3.3900001 5.4899998 10.99" y="0" style="font-size:10px;font-variant:normal;font-weight:400;writing-mode:lr-tb;fill:#1a1a1a;fill-opacity:1;fill-rule:nonzero;stroke:none;font-family:Liberation Sans;-inkscape-font-specification:LiberationSans">-inf</tspan></text><path d="M331.2 43.2h-28.8v18H360v-18h-28.8z" style="fill:none;stroke:#000;stroke-width:.70749998;stroke-linecap:butt;stroke-linejoin:round;stroke-miterlimit:10;stroke-opacity:1;stroke-dasharray:none"/><text transform="matrix(1 0 0 -1 323.1 48.8)"><tspan x="0 5.6999998 7.9000001 13.4" y="0" style="font-size:10px;font-variant:normal;font-weight:400;writing-mode:lr-tb;fill:#1a1a1a;fill-opacity:1;fill-rule:nonzero;stroke:none;font-family:Liberation Sans;-inkscape-font-specification:LiberationSans">+inf</tspan></text><path d="M273.6 43.2h-28.8v18h57.6v-18h-28.8z" style="fill:none;stroke:#000;stroke-width:.70749998;stroke-linecap:butt;stroke-linejoin:round;stroke-miterlimit:10;stroke-opacity:1;stroke-dasharray:none"/><text transform="matrix(1 0 0 -1 269.2 48.8)"><tspan x="0 3.3900001" y="0" style="font-size:10px;font-variant:normal;font-weight:400;writing-mode:lr-tb;fill:#1a1a1a;fill-opacity:1;fill-rule:nonzero;stroke:none;font-family:Liberation Sans;-inkscape-font-specification:LiberationSans">-0</tspan></text><path d="M216 43.2h-28.8v18h57.6v-18H216z" style="fill:none;stroke:#000;stroke-width:.70749998;stroke-linecap:butt;stroke-linejoin:round;stroke-miterlimit:10;stroke-opacity:1;stroke-dasharray:none"/><text transform="matrix(1 0 0 -1 210.4 48.8)"><tspan x="0 5.6999998" y="0" style="font-size:10px;font-variant:normal;font-weight:400;writing-mode:lr-tb;fill:#1a1a1a;fill-opacity:1;fill-rule:nonzero;stroke:none;font-family:Liberation Sans;-inkscape-font-specification:LiberationSans">+0</tspan></text><path d="M158.4 43.2h-28.8v18h57.6v-18h-28.8z" style="fill:none;stroke:#000;stroke-width:.70749998;stroke-linecap:butt;stroke-linejoin:round;stroke-miterlimit:10;stroke-opacity:1;stroke-dasharray:none"/><text transform="matrix(1 0 0 -1 137 48.8)"><tspan x="0 6.0999999 13.3 20.5 27.190001 34.389999" y="0" style="font-size:10px;font-variant:normal;font-weight:400;writing-mode:lr-tb;fill:#1a1a1a;fill-opacity:1;fill-rule:nonzero;stroke:none;font-family:Liberation Sans;-inkscape-font-specification:LiberationSans">FCNVDS</tspan></text></g></svg>