<svg xmlns="http://www.w3.org/2000/svg" width="675" height="135" xml:space="preserve"><defs><clipPath id="a"><path d="M0 0h540v108H0V0z"/></clipPath></defs><g clip-path="url(#a)" transform="matrix(1.25 0 0 -1.25 0 135)"><path d="M0 108h540V0H0v108z" style="fill:#fff;fill-opacity:0;fill-rule:evenodd;stroke:none"/><text transform="matrix(1 0 0 -1 12 91.2)"><tspan x="0 6.5999999 14.9 21 28.200001" y="0" style="font-size:10px;font-variant:normal;font-weight:400;writing-mode:lr-tb;fill:#1a1a1a;fill-opacity:1;fill-rule:nonzero;stroke:none;font-family:Liberation Sans;-inkscape-font-specification:LiberationSans">XMTRX</tspan></text><text transform="matrix(1 0 0 -1 11 69.6)"><tspan x="0 6.5999999 12.7 15.4 20.99" y="0" style="font-size:10px;font-variant:normal;font-weight:400;writing-mode:lr-tb;fill:#1a1a1a;fill-opacity:1;fill-rule:nonzero;stroke:none;font-family:Liberation Sans;-inkscape-font-specification:LiberationSans">XF[0]</tspan></text><text transform="matrix(1 0 0 -1 11 51.6)"><tspan x="0 6.5999999 12.7 15.4 20.99" y="0" style="font-size:10px;font-variant:normal;font-weight:400;writing-mode:lr-tb;fill:#1a1a1a;fill-opacity:1;fill-rule:nonzero;stroke:none;font-family:Liberation Sans;-inkscape-font-specification:LiberationSans">XF[1]</tspan></text><text transform="matrix(1 0 0 -1 11 33.6)"><tspan x="0 6.5999999 12.7 15.4 20.99" y="0" style="font-size:10px;font-variant:normal;font-weight:400;writing-mode:lr-tb;fill:#1a1a1a;fill-opacity:1;fill-rule:nonzero;stroke:none;font-family:Liberation Sans;-inkscape-font-specification:LiberationSans">XF[2]</tspan></text><text transform="matrix(1 0 0 -1 11 15.6)"><tspan x="0 6.5999999 12.7 15.4 20.99" y="0" style="font-size:10px;font-variant:normal;font-weight:400;writing-mode:lr-tb;fill:#1a1a1a;fill-opacity:1;fill-rule:nonzero;stroke:none;font-family:Liberation Sans;-inkscape-font-specification:LiberationSans">XF[3]</tspan></text><text transform="matrix(1 0 0 -1 50.6 69.6)"><tspan x="0 6.5999999 12.7 15.4 20.99" y="0" style="font-size:10px;font-variant:normal;font-weight:400;writing-mode:lr-tb;fill:#1a1a1a;fill-opacity:1;fill-rule:nonzero;stroke:none;font-family:Liberation Sans;-inkscape-font-specification:LiberationSans">XF[4]</tspan></text><text transform="matrix(1 0 0 -1 50.6 51.6)"><tspan x="0 6.5999999 12.7 15.4 20.99" y="0" style="font-size:10px;font-variant:normal;font-weight:400;writing-mode:lr-tb;fill:#1a1a1a;fill-opacity:1;fill-rule:nonzero;stroke:none;font-family:Liberation Sans;-inkscape-font-specification:LiberationSans">XF[5]</tspan></text><text transform="matrix(1 0 0 -1 50.6 33.6)"><tspan x="0 6.5999999 12.7 15.4 20.99" y="0" style="font-size:10px;font-variant:normal;font-weight:400;writing-mode:lr-tb;fill:#1a1a1a;fill-opacity:1;fill-rule:nonzero;stroke:none;font-family:Liberation Sans;-inkscape-font-specification:LiberationSans">XF[6]</tspan></text><text transform="matrix(1 0 0 -1 50.6 15.6)"><tspan x="0 6.5999999 12.7 15.4 20.99" y="0" style="font-size:10px;font-variant:normal;font-weight:400;writing-mode:lr-tb;fill:#1a1a1a;fill-opacity:1;fill-rule:nonzero;stroke:none;font-family:Liberation Sans;-inkscape-font-specification:LiberationSans">XF[7]</tspan></text><text transform="matrix(1 0 0 -1 90.2 69.6)"><tspan x="0 6.5999999 12.7 15.4 20.99" y="0" style="font-size:10px;font-variant:normal;font-weight:400;writing-mode:lr-tb;fill:#1a1a1a;fill-opacity:1;fill-rule:nonzero;stroke:none;font-family:Liberation Sans;-inkscape-font-specification:LiberationSans">XF[8]</tspan></text><text transform="matrix(1 0 0 -1 90.2 51.6)"><tspan x="0 6.5999999 12.7 15.4 20.99" y="0" style="font-size:10px;font-variant:normal;font-weight:400;writing-mode:lr-tb;fill:#1a1a1a;fill-opacity:1;fill-rule:nonzero;stroke:none;font-family:Liberation Sans;-inkscape-font-specification:LiberationSans">XF[9]</tspan></text><text transform="matrix(1 0 0 -1 87.4 33.6)"><tspan x="0 6.5999999 12.7 15.49 20.99 26.49" y="0" style="font-size:10px;font-variant:normal;font-weight:400;writing-mode:lr-tb;fill:#1a1a1a;fill-opacity:1;fill-rule:nonzero;stroke:none;font-family:Liberation Sans;-inkscape-font-specification:LiberationSans">XF[10]</tspan></text><text transform="matrix(1 0 0 -1 87.4 15.6)"><tspan x="0 6.5999999 12.7 15.49 20.99 26.49" y="0" style="font-size:10px;font-variant:normal;font-weight:400;writing-mode:lr-tb;fill:#1a1a1a;fill-opacity:1;fill-rule:nonzero;stroke:none;font-family:Liberation Sans;-inkscape-font-specification:LiberationSans">XF[11]</tspan></text><text transform="matrix(1 0 0 -1 127 69.6)"><tspan x="0 6.5999999 12.7 15.49 20.99 26.49" y="0" style="font-size:10px;font-variant:normal;font-weight:400;writing-mode:lr-tb;fill:#1a1a1a;fill-opacity:1;fill-rule:nonzero;stroke:none;font-family:Liberation Sans;-inkscape-font-specification:LiberationSans">XF[12]</tspan></text><text transform="matrix(1 0 0 -1 127 51.6)"><tspan x="0 6.5999999 12.7 15.49 20.99 26.49" y="0" style="font-size:10px;font-variant:normal;font-weight:400;writing-mode:lr-tb;fill:#1a1a1a;fill-opacity:1;fill-rule:nonzero;stroke:none;font-family:Liberation Sans;-inkscape-font-specification:LiberationSans">XF[13]</tspan></text><text transform="matrix(1 0 0 -1 127 33.6)"><tspan x="0 6.5999999 12.7 15.49 20.99 26.49" y="0" style="font-size:10px;font-variant:normal;font-weight:400;writing-mode:lr-tb;fill:#1a1a1a;fill-opacity:1;fill-rule:nonzero;stroke:none;font-family:Liberation Sans;-inkscape-font-specification:LiberationSans">XF[14]</tspan></text><text transform="matrix(1 0 0 -1 127 15.6)"><tspan x="0 6.5999999 12.7 15.49 20.99 26.49" y="0" style="font-size:10px;font-variant:normal;font-weight:400;writing-mode:lr-tb;fill:#1a1a1a;fill-opacity:1;fill-rule:nonzero;stroke:none;font-family:Liberation Sans;-inkscape-font-specification:LiberationSans">XF[15]</tspan></text><text transform="matrix(1 0 0 -1 210.2 69.6)"><tspan x="0 6.0999999 13.3 16.09 21.59" y="0" style="font-size:10px;font-variant:normal;font-weight:400;writing-mode:lr-tb;fill:#1a1a1a;fill-opacity:1;fill-rule:nonzero;stroke:none;font-family:Liberation Sans;-inkscape-font-specification:LiberationSans">FR[n]</tspan></text><text transform="matrix(1 0 0 -1 204.5 51.6)"><tspan x="0 6.1900001 13.39 16.09 21.59 27.389999 32.889999" y="0" style="font-size:10px;font-variant:normal;font-weight:400;writing-mode:lr-tb;fill:#1a1a1a;fill-opacity:1;fill-rule:nonzero;stroke:none;font-family:Liberation Sans;-inkscape-font-specification:LiberationSans">FR[n+1]</tspan></text><text transform="matrix(1 0 0 -1 204.5 33.6)"><tspan x="0 6.1900001 13.39 16.09 21.59 27.389999 32.889999" y="0" style="font-size:10px;font-variant:normal;font-weight:400;writing-mode:lr-tb;fill:#1a1a1a;fill-opacity:1;fill-rule:nonzero;stroke:none;font-family:Liberation Sans;-inkscape-font-specification:LiberationSans">FR[n+2]</tspan></text><text transform="matrix(1 0 0 -1 204.5 15.6)"><tspan x="0 6.1900001 13.39 16.09 21.59 27.389999 32.889999" y="0" style="font-size:10px;font-variant:normal;font-weight:400;writing-mode:lr-tb;fill:#1a1a1a;fill-opacity:1;fill-rule:nonzero;stroke:none;font-family:Liberation Sans;-inkscape-font-specification:LiberationSans">FR[n+3]</tspan></text><text transform="matrix(1 0 0 -1 202.8 91.2)"><tspan x="0 6.0999999 12.7" y="0" style="font-size:10px;font-variant:normal;font-weight:400;writing-mode:lr-tb;fill:#1a1a1a;fill-opacity:1;fill-rule:nonzero;stroke:none;font-family:Liberation Sans;-inkscape-font-specification:LiberationSans">FVn</tspan></text><text transform="matrix(1 0 0 -1 307.2 91.2)"><tspan x="0 6.0999999 12.7" y="0" style="font-size:10px;font-variant:normal;font-weight:400;writing-mode:lr-tb;fill:#1a1a1a;fill-opacity:1;fill-rule:nonzero;stroke:none;font-family:Liberation Sans;-inkscape-font-specification:LiberationSans">FVn</tspan></text><path d="M263.8 46h16.5" style="fill:none;stroke:#000;stroke-width:.69999999;stroke-linecap:butt;stroke-linejoin:miter;stroke-miterlimit:10;stroke-opacity:1;stroke-dasharray:none"/><path d="m280.4 43.5-.5-.7L289 46l-9.1 3.3.5-.7.4-.8.3-.8.1-.9-.1-.9-.3-.9-.4-.8z" style="fill:#000;fill-opacity:1;fill-rule:evenodd;stroke:none"/><path d="M4.6 10v72M163 10v72M15.4 10H4.6M15.4 82H4.6M163 82h-10.8M163 10h-10.8M195.4 10v72M206.2 10h-10.8M206.2 82h-10.8M249.4 10v72M249.4 82h-10.8M249.4 10h-10.8" style="fill:none;stroke:#000;stroke-width:.70749998;stroke-linecap:butt;stroke-linejoin:round;stroke-miterlimit:10;stroke-opacity:1;stroke-dasharray:none"/><text transform="matrix(1 0 0 -1 314.6 69.6)"><tspan x="0 6.0999999 13.3 16.09 21.59" y="0" style="font-size:10px;font-variant:normal;font-weight:400;writing-mode:lr-tb;fill:#1a1a1a;fill-opacity:1;fill-rule:nonzero;stroke:none;font-family:Liberation Sans;-inkscape-font-specification:LiberationSans">FR[n]</tspan></text><text transform="matrix(1 0 0 -1 308.9 51.6)"><tspan x="0 6.1900001 13.39 16.09 21.59 27.389999 32.889999" y="0" style="font-size:10px;font-variant:normal;font-weight:400;writing-mode:lr-tb;fill:#1a1a1a;fill-opacity:1;fill-rule:nonzero;stroke:none;font-family:Liberation Sans;-inkscape-font-specification:LiberationSans">FR[n+1]</tspan></text><text transform="matrix(1 0 0 -1 308.9 33.6)"><tspan x="0 6.1900001 13.39 16.09 21.59 27.389999 32.889999" y="0" style="font-size:10px;font-variant:normal;font-weight:400;writing-mode:lr-tb;fill:#1a1a1a;fill-opacity:1;fill-rule:nonzero;stroke:none;font-family:Liberation Sans;-inkscape-font-specification:LiberationSans">FR[n+2]</tspan></text><text transform="matrix(1 0 0 -1 308.9 15.6)"><tspan x="0 6.1900001 13.39 16.09 21.59 27.389999 32.889999" y="0" style="font-size:10px;font-variant:normal;font-weight:400;writing-mode:lr-tb;fill:#1a1a1a;fill-opacity:1;fill-rule:nonzero;stroke:none;font-family:Liberation Sans;-inkscape-font-specification:LiberationSans">FR[n+3]</tspan></text><path d="M299.8 10v72M310.6 10h-10.8M310.6 82h-10.8M353.8 10v72M353.8 82H343M353.8 10H343M181 49.6l-7.2-7.2M173.8 49.6l7.2-7.2" style="fill:none;stroke:#000;stroke-width:.70749998;stroke-linecap:butt;stroke-linejoin:round;stroke-miterlimit:10;stroke-opacity:1;stroke-dasharray:none"/></g></svg>