<svg xmlns="http://www.w3.org/2000/svg" width="630" height="540" xml:space="preserve"><defs><clipPath id="a"><path d="M0 0h504v432H0V0z"/></clipPath></defs><g clip-path="url(#a)" transform="matrix(1.25 0 0 -1.25 0 540)"><path d="M0 432h504V0H0v432z" style="fill:#fff;fill-opacity:0;fill-rule:evenodd;stroke:none"/><text transform="matrix(1 0 0 -1 86.3 405)"><tspan x="0 5.5" y="0" style="font-size:10px;font-variant:normal;font-weight:400;writing-mode:lr-tb;fill:#1a1a1a;fill-opacity:1;fill-rule:nonzero;stroke:none;font-family:Liberation Sans;-inkscape-font-specification:LiberationSans">31</tspan></text><path d="M151.2 374.4H86.4v25.2H216v-25.2h-64.8z" style="fill:#fff;fill-opacity:1;fill-rule:evenodd;stroke:none"/><path d="M151.2 374.4H86.4v25.2H216v-25.2h-64.8z" style="fill:none;stroke:#000;stroke-width:.70749998;stroke-linecap:butt;stroke-linejoin:round;stroke-miterlimit:10;stroke-opacity:1;stroke-dasharray:none"/><text transform="matrix(1 0 0 -1 102.2 383.2)"><tspan x="0 6.1929998 12.298 18.403 24.507999 30.701 36.806 42.910999 49.015999 55.120998 61.226002 67.418999 73.524002 79.628998 85.734001 91.927002" y="0" style="font-size:11px;font-variant:normal;font-weight:400;writing-mode:lr-tb;fill:#1a1a1a;fill-opacity:1;fill-rule:nonzero;stroke:none;font-family:Liberation Sans;-inkscape-font-specification:LiberationSans">0000000000000000</tspan></text><text transform="matrix(1 0 0 -1 36.2 382.5)"><tspan x="0 3.6849999 11.583 20.867001" y="0" style="font-size:11px;font-variant:normal;font-weight:400;writing-mode:lr-tb;fill:#1a1a1a;fill-opacity:1;fill-rule:nonzero;stroke:none;font-family:Liberation Sans;-inkscape-font-specification:LiberationSans">(Rm)</tspan></text><path d="m166.9 338.5 81.5 35.9" style="fill:none;stroke:#000;stroke-width:.69999999;stroke-linecap:butt;stroke-linejoin:miter;stroke-miterlimit:10;stroke-opacity:1;stroke-dasharray:none"/><path d="m158.4 334.8 10.2 1-2.6 5.9-7.6-6.9z" style="fill:#000;fill-opacity:1;fill-rule:evenodd;stroke:none"/><path d="M248.4 374.4H216v25.2h64.8v-25.2h-32.4z" style="fill:#fff;fill-opacity:1;fill-rule:evenodd;stroke:none"/><path d="M248.4 374.4H216v25.2h64.8v-25.2h-32.4z" style="fill:none;stroke:#000;stroke-width:.70749998;stroke-linecap:butt;stroke-linejoin:round;stroke-miterlimit:10;stroke-opacity:1;stroke-dasharray:none"/><text transform="matrix(1 0 0 -1 240.8 383.2)"><tspan x="0 7.3039999" y="0" style="font-size:11px;font-variant:normal;font-weight:400;writing-mode:lr-tb;fill:#1a1a1a;fill-opacity:1;fill-rule:nonzero;stroke:none;font-family:Liberation Sans;-inkscape-font-specification:LiberationSans">BN</tspan></text><path d="m339.3 341.7-29.7 32.7" style="fill:none;stroke:#000;stroke-width:.69999999;stroke-linecap:butt;stroke-linejoin:miter;stroke-miterlimit:10;stroke-opacity:1;stroke-dasharray:none"/><path d="m345.6 334.8-4.1 9.4-4.9-4.4 9-5z" style="fill:#000;fill-opacity:1;fill-rule:evenodd;stroke:none"/><text transform="matrix(1 0 0 -1 201.5 405)"><tspan x="0 5.5" y="0" style="font-size:10px;font-variant:normal;font-weight:400;writing-mode:lr-tb;fill:#1a1a1a;fill-opacity:1;fill-rule:nonzero;stroke:none;font-family:Liberation Sans;-inkscape-font-specification:LiberationSans">16</tspan></text><text transform="matrix(1 0 0 -1 216.7 405)"><tspan x="0 5.5" y="0" style="font-size:10px;font-variant:normal;font-weight:400;writing-mode:lr-tb;fill:#1a1a1a;fill-opacity:1;fill-rule:nonzero;stroke:none;font-family:Liberation Sans;-inkscape-font-specification:LiberationSans">15</tspan></text><path d="M336.6 374.4h-9v25.2h18v-25.2h-9z" style="fill:#fff;fill-opacity:1;fill-rule:evenodd;stroke:none"/><path d="M336.6 374.4h-9v25.2h18v-25.2h-9z" style="fill:none;stroke:#000;stroke-width:.70749998;stroke-linecap:butt;stroke-linejoin:round;stroke-miterlimit:10;stroke-opacity:1;stroke-dasharray:none"/><text transform="matrix(1 0 0 -1 330.4 383.2)"><tspan x="0 6.1929998" y="0" style="font-size:11px;font-variant:normal;font-weight:400;writing-mode:lr-tb;fill:#1a1a1a;fill-opacity:1;fill-rule:nonzero;stroke:none;font-family:Liberation Sans;-inkscape-font-specification:LiberationSans">00</tspan></text><path d="M304.2 374.4h-23.4v25.2h46.8v-25.2h-23.4z" style="fill:#fff;fill-opacity:1;fill-rule:evenodd;stroke:none"/><path d="M304.2 374.4h-23.4v25.2h46.8v-25.2h-23.4z" style="fill:none;stroke:#000;stroke-width:.70749998;stroke-linecap:butt;stroke-linejoin:round;stroke-miterlimit:10;stroke-opacity:1;stroke-dasharray:none"/><text transform="matrix(1 0 0 -1 296.6 383.2)"><tspan x="0 7.3039999" y="0" style="font-size:11px;font-variant:normal;font-weight:400;writing-mode:lr-tb;fill:#1a1a1a;fill-opacity:1;fill-rule:nonzero;stroke:none;font-family:Liberation Sans;-inkscape-font-specification:LiberationSans">EN</tspan></text><text transform="matrix(1 0 0 -1 273.5 405)"><tspan x="0" y="0" style="font-size:10px;font-variant:normal;font-weight:400;writing-mode:lr-tb;fill:#1a1a1a;fill-opacity:1;fill-rule:nonzero;stroke:none;font-family:Liberation Sans;-inkscape-font-specification:LiberationSans">7</tspan></text><text transform="matrix(1 0 0 -1 284.3 405)"><tspan x="0" y="0" style="font-size:10px;font-variant:normal;font-weight:400;writing-mode:lr-tb;fill:#1a1a1a;fill-opacity:1;fill-rule:nonzero;stroke:none;font-family:Liberation Sans;-inkscape-font-specification:LiberationSans">6</tspan></text><text transform="matrix(1 0 0 -1 320.3 405)"><tspan x="0" y="0" style="font-size:10px;font-variant:normal;font-weight:400;writing-mode:lr-tb;fill:#1a1a1a;fill-opacity:1;fill-rule:nonzero;stroke:none;font-family:Liberation Sans;-inkscape-font-specification:LiberationSans">2</tspan></text><text transform="matrix(1 0 0 -1 338.3 405)"><tspan x="0" y="0" style="font-size:10px;font-variant:normal;font-weight:400;writing-mode:lr-tb;fill:#1a1a1a;fill-opacity:1;fill-rule:nonzero;stroke:none;font-family:Liberation Sans;-inkscape-font-specification:LiberationSans">0</tspan></text><text transform="matrix(1 0 0 -1 367.4 389.7)"><tspan x="0 7.3039999 15.202 18.392 21.483 28.787001 34.891998 40.997002 46.584999 49.675999 55.780998 61.886002 71.070999 77.264 83.369003 87.054001 90.144997 93.334999 95.733002 101.838 104.236" y="0" style="font-size:11px;font-variant:normal;font-weight:400;writing-mode:lr-tb;fill:#1a1a1a;fill-opacity:1;fill-rule:nonzero;stroke:none;font-family:Liberation Sans;-inkscape-font-specification:LiberationSans">BN: Bank number field</tspan></text><text transform="matrix(1 0 0 -1 367.4 377.5)"><tspan x="0 7.3039999 15.202 18.392 21.483 28.787001 34.891998 37.983002 41.766998 47.266998 50.358002 56.463001 62.568001 71.851997 77.957001 84.061996 87.747002 90.936996 94.028 96.426003 102.531 104.929" y="0" style="font-size:11px;font-variant:normal;font-weight:400;writing-mode:lr-tb;fill:#1a1a1a;fill-opacity:1;fill-rule:nonzero;stroke:none;font-family:Liberation Sans;-inkscape-font-specification:LiberationSans">EN: Entry number field</tspan></text><path d="M153 298.8h-48.6v14.4h97.2v-14.4H153z" style="fill:#fff;fill-opacity:1;fill-rule:evenodd;stroke:none"/><path d="M153 298.8h-48.6v14.4h97.2v-14.4H153z" style="fill:none;stroke:#000;stroke-width:.70749998;stroke-linecap:butt;stroke-linejoin:round;stroke-miterlimit:10;stroke-opacity:1;stroke-dasharray:none"/><text transform="matrix(1 0 0 -1 138.9 302.9)"><tspan x="0 5.994 10.998 16.002001 20.591999 23.084999" y="0" style="font-size:9px;font-variant:normal;font-weight:400;writing-mode:lr-tb;fill:#1a1a1a;fill-opacity:1;fill-rule:nonzero;stroke:none;font-family:Liberation Sans;-inkscape-font-specification:LiberationSans">Bank 0</tspan></text><path d="M153 284.4h-48.6v14.4h97.2v-14.4H153z" style="fill:#fff;fill-opacity:1;fill-rule:evenodd;stroke:none"/><path d="M153 284.4h-48.6v14.4h97.2v-14.4H153z" style="fill:none;stroke:#000;stroke-width:.70749998;stroke-linecap:butt;stroke-linejoin:round;stroke-miterlimit:10;stroke-opacity:1;stroke-dasharray:none"/><text transform="matrix(1 0 0 -1 138.9 288.5)"><tspan x="0 5.994 10.998 16.002001 20.591999 23.084999" y="0" style="font-size:9px;font-variant:normal;font-weight:400;writing-mode:lr-tb;fill:#1a1a1a;fill-opacity:1;fill-rule:nonzero;stroke:none;font-family:Liberation Sans;-inkscape-font-specification:LiberationSans">Bank 1</tspan></text><path d="M153 270h-48.6v14.4h97.2V270H153z" style="fill:#fff;fill-opacity:1;fill-rule:evenodd;stroke:none"/><path d="M153 270h-48.6v14.4h97.2V270H153z" style="fill:none;stroke:#000;stroke-width:.70749998;stroke-linecap:butt;stroke-linejoin:round;stroke-miterlimit:10;stroke-opacity:1;stroke-dasharray:none"/><text transform="matrix(1 0 0 -1 138.9 274.1)"><tspan x="0 5.994 10.998 16.002001 20.591999 23.084999" y="0" style="font-size:9px;font-variant:normal;font-weight:400;writing-mode:lr-tb;fill:#1a1a1a;fill-opacity:1;fill-rule:nonzero;stroke:none;font-family:Liberation Sans;-inkscape-font-specification:LiberationSans">Bank 2</tspan></text><path d="M153 255.6h-48.6V270h97.2v-14.4H153z" style="fill:#fff;fill-opacity:1;fill-rule:evenodd;stroke:none"/><path d="M153 255.6h-48.6V270h97.2v-14.4H153z" style="fill:none;stroke:#000;stroke-width:.70749998;stroke-linecap:butt;stroke-linejoin:round;stroke-miterlimit:10;stroke-opacity:1;stroke-dasharray:none"/><text transform="matrix(1 0 0 -1 138.9 259.7)"><tspan x="0 5.994 10.998 16.002001 20.591999 23.084999" y="0" style="font-size:9px;font-variant:normal;font-weight:400;writing-mode:lr-tb;fill:#1a1a1a;fill-opacity:1;fill-rule:nonzero;stroke:none;font-family:Liberation Sans;-inkscape-font-specification:LiberationSans">Bank 3</tspan></text><path d="M153 241.2h-48.6v14.4h97.2v-14.4H153z" style="fill:#fff;fill-opacity:1;fill-rule:evenodd;stroke:none"/><path d="M153 241.2h-48.6v14.4h97.2v-14.4H153z" style="fill:none;stroke:#000;stroke-width:.70749998;stroke-linecap:butt;stroke-linejoin:round;stroke-miterlimit:10;stroke-opacity:1;stroke-dasharray:none"/><text transform="matrix(1 0 0 -1 138.9 245.3)"><tspan x="0 5.994 10.998 16.002001 20.591999 23.084999" y="0" style="font-size:9px;font-variant:normal;font-weight:400;writing-mode:lr-tb;fill:#1a1a1a;fill-opacity:1;fill-rule:nonzero;stroke:none;font-family:Liberation Sans;-inkscape-font-specification:LiberationSans">Bank 4</tspan></text><path d="M153 226.8h-48.6v14.4h97.2v-14.4H153z" style="fill:#fff;fill-opacity:1;fill-rule:evenodd;stroke:none"/><path d="M153 226.8h-48.6v14.4h97.2v-14.4H153z" style="fill:none;stroke:#000;stroke-width:.70749998;stroke-linecap:butt;stroke-linejoin:round;stroke-miterlimit:10;stroke-opacity:1;stroke-dasharray:none"/><text transform="matrix(1 0 0 -1 138.9 230.9)"><tspan x="0 5.994 10.998 16.002001 20.591999 23.084999" y="0" style="font-size:9px;font-variant:normal;font-weight:400;writing-mode:lr-tb;fill:#1a1a1a;fill-opacity:1;fill-rule:nonzero;stroke:none;font-family:Liberation Sans;-inkscape-font-specification:LiberationSans">Bank 5</tspan></text><path d="M153 212.4h-48.6v14.4h97.2v-14.4H153z" style="fill:#fff;fill-opacity:1;fill-rule:evenodd;stroke:none"/><path d="M153 212.4h-48.6v14.4h97.2v-14.4H153z" style="fill:none;stroke:#000;stroke-width:.70749998;stroke-linecap:butt;stroke-linejoin:round;stroke-miterlimit:10;stroke-opacity:1;stroke-dasharray:none"/><text transform="matrix(1 0 0 -1 138.9 216.5)"><tspan x="0 5.994 10.998 16.002001 20.591999 23.084999" y="0" style="font-size:9px;font-variant:normal;font-weight:400;writing-mode:lr-tb;fill:#1a1a1a;fill-opacity:1;fill-rule:nonzero;stroke:none;font-family:Liberation Sans;-inkscape-font-specification:LiberationSans">Bank 6</tspan></text><path d="M153 198h-48.6v14.4h97.2V198H153z" style="fill:#fff;fill-opacity:1;fill-rule:evenodd;stroke:none"/><path d="M153 198h-48.6v14.4h97.2V198H153z" style="fill:none;stroke:#000;stroke-width:.70749998;stroke-linecap:butt;stroke-linejoin:round;stroke-miterlimit:10;stroke-opacity:1;stroke-dasharray:none"/><text transform="matrix(1 0 0 -1 138.9 202.1)"><tspan x="0 5.994 10.998 16.002001 20.591999 23.084999" y="0" style="font-size:9px;font-variant:normal;font-weight:400;writing-mode:lr-tb;fill:#1a1a1a;fill-opacity:1;fill-rule:nonzero;stroke:none;font-family:Liberation Sans;-inkscape-font-specification:LiberationSans">Bank 7</tspan></text><path d="M153 183.6h-48.6V198h97.2v-14.4H153z" style="fill:#fff;fill-opacity:1;fill-rule:evenodd;stroke:none"/><path d="M153 183.6h-48.6V198h97.2v-14.4H153z" style="fill:none;stroke:#000;stroke-width:.70749998;stroke-linecap:butt;stroke-linejoin:round;stroke-miterlimit:10;stroke-opacity:1;stroke-dasharray:none"/><text transform="matrix(1 0 0 -1 138.9 187.7)"><tspan x="0 5.994 10.998 16.002001 20.591999 23.084999" y="0" style="font-size:9px;font-variant:normal;font-weight:400;writing-mode:lr-tb;fill:#1a1a1a;fill-opacity:1;fill-rule:nonzero;stroke:none;font-family:Liberation Sans;-inkscape-font-specification:LiberationSans">Bank 8</tspan></text><path d="M153 169.2h-48.6v14.4h97.2v-14.4H153z" style="fill:#fff;fill-opacity:1;fill-rule:evenodd;stroke:none"/><path d="M153 169.2h-48.6v14.4h97.2v-14.4H153z" style="fill:none;stroke:#000;stroke-width:.70749998;stroke-linecap:butt;stroke-linejoin:round;stroke-miterlimit:10;stroke-opacity:1;stroke-dasharray:none"/><text transform="matrix(1 0 0 -1 138.9 173.3)"><tspan x="0 5.994 10.998 16.002001 20.591999 23.084999" y="0" style="font-size:9px;font-variant:normal;font-weight:400;writing-mode:lr-tb;fill:#1a1a1a;fill-opacity:1;fill-rule:nonzero;stroke:none;font-family:Liberation Sans;-inkscape-font-specification:LiberationSans">Bank 9</tspan></text><path d="M153 154.8h-48.6v14.4h97.2v-14.4H153z" style="fill:#fff;fill-opacity:1;fill-rule:evenodd;stroke:none"/><path d="M153 154.8h-48.6v14.4h97.2v-14.4H153z" style="fill:none;stroke:#000;stroke-width:.70749998;stroke-linecap:butt;stroke-linejoin:round;stroke-miterlimit:10;stroke-opacity:1;stroke-dasharray:none"/><text transform="matrix(1 0 0 -1 136.3 158.9)"><tspan x="0 6.0929999 11.097 16.101 20.691 23.184 28.278" y="0" style="font-size:9px;font-variant:normal;font-weight:400;writing-mode:lr-tb;fill:#1a1a1a;fill-opacity:1;fill-rule:nonzero;stroke:none;font-family:Liberation Sans;-inkscape-font-specification:LiberationSans">Bank 10</tspan></text><path d="M153 140.4h-48.6v14.4h97.2v-14.4H153z" style="fill:#fff;fill-opacity:1;fill-rule:evenodd;stroke:none"/><path d="M153 140.4h-48.6v14.4h97.2v-14.4H153z" style="fill:none;stroke:#000;stroke-width:.70749998;stroke-linecap:butt;stroke-linejoin:round;stroke-miterlimit:10;stroke-opacity:1;stroke-dasharray:none"/><text transform="matrix(1 0 0 -1 136.3 144.5)"><tspan x="0 6.0929999 11.097 16.101 20.691 23.184 28.278" y="0" style="font-size:9px;font-variant:normal;font-weight:400;writing-mode:lr-tb;fill:#1a1a1a;fill-opacity:1;fill-rule:nonzero;stroke:none;font-family:Liberation Sans;-inkscape-font-specification:LiberationSans">Bank 11</tspan></text><path d="M153 126h-48.6v14.4h97.2V126H153z" style="fill:#fff;fill-opacity:1;fill-rule:evenodd;stroke:none"/><path d="M153 126h-48.6v14.4h97.2V126H153z" style="fill:none;stroke:#000;stroke-width:.70749998;stroke-linecap:butt;stroke-linejoin:round;stroke-miterlimit:10;stroke-opacity:1;stroke-dasharray:none"/><text transform="matrix(1 0 0 -1 136.3 130.1)"><tspan x="0 6.0929999 11.097 16.101 20.691 23.184 28.278" y="0" style="font-size:9px;font-variant:normal;font-weight:400;writing-mode:lr-tb;fill:#1a1a1a;fill-opacity:1;fill-rule:nonzero;stroke:none;font-family:Liberation Sans;-inkscape-font-specification:LiberationSans">Bank 12</tspan></text><path d="M153 111.6h-48.6V126h97.2v-14.4H153z" style="fill:#fff;fill-opacity:1;fill-rule:evenodd;stroke:none"/><path d="M153 111.6h-48.6V126h97.2v-14.4H153z" style="fill:none;stroke:#000;stroke-width:.70749998;stroke-linecap:butt;stroke-linejoin:round;stroke-miterlimit:10;stroke-opacity:1;stroke-dasharray:none"/><text transform="matrix(1 0 0 -1 136.3 115.7)"><tspan x="0 6.0929999 11.097 16.101 20.691 23.184 28.278" y="0" style="font-size:9px;font-variant:normal;font-weight:400;writing-mode:lr-tb;fill:#1a1a1a;fill-opacity:1;fill-rule:nonzero;stroke:none;font-family:Liberation Sans;-inkscape-font-specification:LiberationSans">Bank 13</tspan></text><path d="M153 97.2h-48.6v14.4h97.2V97.2H153z" style="fill:#fff;fill-opacity:1;fill-rule:evenodd;stroke:none"/><path d="M153 97.2h-48.6v14.4h97.2V97.2H153z" style="fill:none;stroke:#000;stroke-width:.70749998;stroke-linecap:butt;stroke-linejoin:round;stroke-miterlimit:10;stroke-opacity:1;stroke-dasharray:none"/><text transform="matrix(1 0 0 -1 136.3 101.3)"><tspan x="0 6.0929999 11.097 16.101 20.691 23.184 28.278" y="0" style="font-size:9px;font-variant:normal;font-weight:400;writing-mode:lr-tb;fill:#1a1a1a;fill-opacity:1;fill-rule:nonzero;stroke:none;font-family:Liberation Sans;-inkscape-font-specification:LiberationSans">Bank 14</tspan></text><text transform="matrix(1 0 0 -1 35.4 302.9)"><tspan x="0 5.0939999 10.098 15.102 20.195999 25.200001 30.294001 35.298 40.301998 45.396" y="0" style="font-size:9px;font-variant:normal;font-weight:400;writing-mode:lr-tb;fill:#1a1a1a;fill-opacity:1;fill-rule:nonzero;stroke:none;font-family:Liberation Sans;-inkscape-font-specification:LiberationSans">000000000 </tspan></text><text transform="matrix(1 0 0 -1 35.4 288.5)"><tspan x="0 5.0939999 10.098 15.102 20.195999 25.200001 30.294001 35.298 40.301998 45.396" y="0" style="font-size:9px;font-variant:normal;font-weight:400;writing-mode:lr-tb;fill:#1a1a1a;fill-opacity:1;fill-rule:nonzero;stroke:none;font-family:Liberation Sans;-inkscape-font-specification:LiberationSans">000000001 </tspan></text><text transform="matrix(1 0 0 -1 35.4 274.1)"><tspan x="0 5.0939999 10.098 15.102 20.195999 25.200001 30.294001 35.298 40.301998" y="0" style="font-size:9px;font-variant:normal;font-weight:400;writing-mode:lr-tb;fill:#1a1a1a;fill-opacity:1;fill-rule:nonzero;stroke:none;font-family:Liberation Sans;-inkscape-font-specification:LiberationSans">000000010</tspan></text><text transform="matrix(1 0 0 -1 35.4 259.7)"><tspan x="0 5.0939999 10.098 15.102 20.195999 25.200001 30.294001 35.298 40.301998 45.396" y="0" style="font-size:9px;font-variant:normal;font-weight:400;writing-mode:lr-tb;fill:#1a1a1a;fill-opacity:1;fill-rule:nonzero;stroke:none;font-family:Liberation Sans;-inkscape-font-specification:LiberationSans">000000011 </tspan></text><text transform="matrix(1 0 0 -1 35.4 245.3)"><tspan x="0 5.0939999 10.098 15.102 20.195999 25.200001 30.294001 35.298 40.301998 45.396" y="0" style="font-size:9px;font-variant:normal;font-weight:400;writing-mode:lr-tb;fill:#1a1a1a;fill-opacity:1;fill-rule:nonzero;stroke:none;font-family:Liberation Sans;-inkscape-font-specification:LiberationSans">000000100 </tspan></text><text transform="matrix(1 0 0 -1 35.4 230.9)"><tspan x="0 5.0939999 10.098 15.102 20.195999 25.200001 30.294001 35.298 40.301998 45.396" y="0" style="font-size:9px;font-variant:normal;font-weight:400;writing-mode:lr-tb;fill:#1a1a1a;fill-opacity:1;fill-rule:nonzero;stroke:none;font-family:Liberation Sans;-inkscape-font-specification:LiberationSans">000000101 </tspan></text><text transform="matrix(1 0 0 -1 35.4 216.5)"><tspan x="0 5.0939999 10.098 15.102 20.195999 25.200001 30.294001 35.298 40.301998 45.396" y="0" style="font-size:9px;font-variant:normal;font-weight:400;writing-mode:lr-tb;fill:#1a1a1a;fill-opacity:1;fill-rule:nonzero;stroke:none;font-family:Liberation Sans;-inkscape-font-specification:LiberationSans">000000110 </tspan></text><text transform="matrix(1 0 0 -1 35.4 202.1)"><tspan x="0 5.0939999 10.098 15.102 20.195999 25.200001 30.294001 35.298 40.301998 45.396" y="0" style="font-size:9px;font-variant:normal;font-weight:400;writing-mode:lr-tb;fill:#1a1a1a;fill-opacity:1;fill-rule:nonzero;stroke:none;font-family:Liberation Sans;-inkscape-font-specification:LiberationSans">000000111 </tspan></text><text transform="matrix(1 0 0 -1 35.4 187.7)"><tspan x="0 5.0939999 10.098 15.102 20.195999 25.200001 30.294001 35.298 40.301998 45.396" y="0" style="font-size:9px;font-variant:normal;font-weight:400;writing-mode:lr-tb;fill:#1a1a1a;fill-opacity:1;fill-rule:nonzero;stroke:none;font-family:Liberation Sans;-inkscape-font-specification:LiberationSans">000001000 </tspan></text><text transform="matrix(1 0 0 -1 35.4 173.3)"><tspan x="0 5.0939999 10.098 15.102 20.195999 25.200001 30.294001 35.298 40.301998 45.396" y="0" style="font-size:9px;font-variant:normal;font-weight:400;writing-mode:lr-tb;fill:#1a1a1a;fill-opacity:1;fill-rule:nonzero;stroke:none;font-family:Liberation Sans;-inkscape-font-specification:LiberationSans">000001001 </tspan></text><text transform="matrix(1 0 0 -1 35.4 158.9)"><tspan x="0 5.0939999 10.098 15.102 20.195999 25.200001 30.294001 35.298 40.301998 45.396" y="0" style="font-size:9px;font-variant:normal;font-weight:400;writing-mode:lr-tb;fill:#1a1a1a;fill-opacity:1;fill-rule:nonzero;stroke:none;font-family:Liberation Sans;-inkscape-font-specification:LiberationSans">000001010 </tspan></text><text transform="matrix(1 0 0 -1 35.4 144.5)"><tspan x="0 5.0939999 10.098 15.102 20.195999 25.200001 30.294001 35.298 40.301998 45.396" y="0" style="font-size:9px;font-variant:normal;font-weight:400;writing-mode:lr-tb;fill:#1a1a1a;fill-opacity:1;fill-rule:nonzero;stroke:none;font-family:Liberation Sans;-inkscape-font-specification:LiberationSans">000001011 </tspan></text><text transform="matrix(1 0 0 -1 35.4 130.1)"><tspan x="0 5.0939999 10.098 15.102 20.195999 25.200001 30.294001 35.298 40.301998 45.396" y="0" style="font-size:9px;font-variant:normal;font-weight:400;writing-mode:lr-tb;fill:#1a1a1a;fill-opacity:1;fill-rule:nonzero;stroke:none;font-family:Liberation Sans;-inkscape-font-specification:LiberationSans">000001100 </tspan></text><text transform="matrix(1 0 0 -1 35.4 115.7)"><tspan x="0 5.0939999 10.098 15.102 20.195999 25.200001 30.294001 35.298 40.301998 45.396" y="0" style="font-size:9px;font-variant:normal;font-weight:400;writing-mode:lr-tb;fill:#1a1a1a;fill-opacity:1;fill-rule:nonzero;stroke:none;font-family:Liberation Sans;-inkscape-font-specification:LiberationSans">000001101 </tspan></text><text transform="matrix(1 0 0 -1 35.4 101.3)"><tspan x="0 5.0939999 10.098 15.102 20.195999 25.200001 30.294001 35.298 40.301998 45.396" y="0" style="font-size:9px;font-variant:normal;font-weight:400;writing-mode:lr-tb;fill:#1a1a1a;fill-opacity:1;fill-rule:nonzero;stroke:none;font-family:Liberation Sans;-inkscape-font-specification:LiberationSans">000001110 </tspan></text><text transform="matrix(1 0 0 -1 66 318.6)"><tspan x="0 6.5999999" y="0" style="font-size:10px;font-variant:normal;font-weight:400;writing-mode:lr-tb;fill:#1a1a1a;fill-opacity:1;fill-rule:nonzero;stroke:none;font-family:Liberation Sans;-inkscape-font-specification:LiberationSans">BN</tspan></text><text transform="matrix(1 0 0 -1 120.8 318.6)"><tspan x="0 7.1999998 12.7 18.200001 20.4 25.4 28.190001 33.689999 36.990002 39.779999 46.380001 51.880001 57.380001" y="0" style="font-size:10px;font-variant:normal;font-weight:400;writing-mode:lr-tb;fill:#1a1a1a;fill-opacity:1;fill-rule:nonzero;stroke:none;font-family:Liberation Sans;-inkscape-font-specification:LiberationSans">Register Bank</tspan></text><path d="M397.8 298.8h-48.6v14.4h97.2v-14.4h-48.6z" style="fill:#fff;fill-opacity:1;fill-rule:evenodd;stroke:none"/><path d="M397.8 298.8h-48.6v14.4h97.2v-14.4h-48.6z" style="fill:none;stroke:#000;stroke-width:.70749998;stroke-linecap:butt;stroke-linejoin:round;stroke-miterlimit:10;stroke-opacity:1;stroke-dasharray:none"/><text transform="matrix(1 0 0 -1 392 302.9)"><tspan x="0 6.4980001" y="0" style="font-size:9px;font-variant:normal;font-weight:400;writing-mode:lr-tb;fill:#1a1a1a;fill-opacity:1;fill-rule:nonzero;stroke:none;font-family:Liberation Sans;-inkscape-font-specification:LiberationSans">R0</tspan></text><path d="M397.8 284.4h-48.6v14.4h97.2v-14.4h-48.6z" style="fill:#fff;fill-opacity:1;fill-rule:evenodd;stroke:none"/><path d="M397.8 284.4h-48.6v14.4h97.2v-14.4h-48.6z" style="fill:none;stroke:#000;stroke-width:.70749998;stroke-linecap:butt;stroke-linejoin:round;stroke-miterlimit:10;stroke-opacity:1;stroke-dasharray:none"/><text transform="matrix(1 0 0 -1 392 288.5)"><tspan x="0 6.4980001" y="0" style="font-size:9px;font-variant:normal;font-weight:400;writing-mode:lr-tb;fill:#1a1a1a;fill-opacity:1;fill-rule:nonzero;stroke:none;font-family:Liberation Sans;-inkscape-font-specification:LiberationSans">R1</tspan></text><path d="M397.8 270h-48.6v14.4h97.2V270h-48.6z" style="fill:#fff;fill-opacity:1;fill-rule:evenodd;stroke:none"/><path d="M397.8 270h-48.6v14.4h97.2V270h-48.6z" style="fill:none;stroke:#000;stroke-width:.70749998;stroke-linecap:butt;stroke-linejoin:round;stroke-miterlimit:10;stroke-opacity:1;stroke-dasharray:none"/><text transform="matrix(1 0 0 -1 392 274.1)"><tspan x="0 6.4980001" y="0" style="font-size:9px;font-variant:normal;font-weight:400;writing-mode:lr-tb;fill:#1a1a1a;fill-opacity:1;fill-rule:nonzero;stroke:none;font-family:Liberation Sans;-inkscape-font-specification:LiberationSans">R2</tspan></text><path d="M397.8 255.6h-48.6V270h97.2v-14.4h-48.6z" style="fill:#fff;fill-opacity:1;fill-rule:evenodd;stroke:none"/><path d="M397.8 255.6h-48.6V270h97.2v-14.4h-48.6z" style="fill:none;stroke:#000;stroke-width:.70749998;stroke-linecap:butt;stroke-linejoin:round;stroke-miterlimit:10;stroke-opacity:1;stroke-dasharray:none"/><text transform="matrix(1 0 0 -1 392 259.7)"><tspan x="0 6.4980001" y="0" style="font-size:9px;font-variant:normal;font-weight:400;writing-mode:lr-tb;fill:#1a1a1a;fill-opacity:1;fill-rule:nonzero;stroke:none;font-family:Liberation Sans;-inkscape-font-specification:LiberationSans">R3</tspan></text><path d="M397.8 241.2h-48.6v14.4h97.2v-14.4h-48.6z" style="fill:#fff;fill-opacity:1;fill-rule:evenodd;stroke:none"/><path d="M397.8 241.2h-48.6v14.4h97.2v-14.4h-48.6z" style="fill:none;stroke:#000;stroke-width:.70749998;stroke-linecap:butt;stroke-linejoin:round;stroke-miterlimit:10;stroke-opacity:1;stroke-dasharray:none"/><text transform="matrix(1 0 0 -1 392 245.3)"><tspan x="0 6.4980001" y="0" style="font-size:9px;font-variant:normal;font-weight:400;writing-mode:lr-tb;fill:#1a1a1a;fill-opacity:1;fill-rule:nonzero;stroke:none;font-family:Liberation Sans;-inkscape-font-specification:LiberationSans">R4</tspan></text><path d="M397.8 226.8h-48.6v14.4h97.2v-14.4h-48.6z" style="fill:#fff;fill-opacity:1;fill-rule:evenodd;stroke:none"/><path d="M397.8 226.8h-48.6v14.4h97.2v-14.4h-48.6z" style="fill:none;stroke:#000;stroke-width:.70749998;stroke-linecap:butt;stroke-linejoin:round;stroke-miterlimit:10;stroke-opacity:1;stroke-dasharray:none"/><text transform="matrix(1 0 0 -1 392 230.9)"><tspan x="0 6.4980001" y="0" style="font-size:9px;font-variant:normal;font-weight:400;writing-mode:lr-tb;fill:#1a1a1a;fill-opacity:1;fill-rule:nonzero;stroke:none;font-family:Liberation Sans;-inkscape-font-specification:LiberationSans">R5</tspan></text><path d="M397.8 212.4h-48.6v14.4h97.2v-14.4h-48.6z" style="fill:#fff;fill-opacity:1;fill-rule:evenodd;stroke:none"/><path d="M397.8 212.4h-48.6v14.4h97.2v-14.4h-48.6z" style="fill:none;stroke:#000;stroke-width:.70749998;stroke-linecap:butt;stroke-linejoin:round;stroke-miterlimit:10;stroke-opacity:1;stroke-dasharray:none"/><text transform="matrix(1 0 0 -1 392 216.5)"><tspan x="0 6.4980001" y="0" style="font-size:9px;font-variant:normal;font-weight:400;writing-mode:lr-tb;fill:#1a1a1a;fill-opacity:1;fill-rule:nonzero;stroke:none;font-family:Liberation Sans;-inkscape-font-specification:LiberationSans">R6</tspan></text><path d="M397.8 198h-48.6v14.4h97.2V198h-48.6z" style="fill:#fff;fill-opacity:1;fill-rule:evenodd;stroke:none"/><path d="M397.8 198h-48.6v14.4h97.2V198h-48.6z" style="fill:none;stroke:#000;stroke-width:.70749998;stroke-linecap:butt;stroke-linejoin:round;stroke-miterlimit:10;stroke-opacity:1;stroke-dasharray:none"/><text transform="matrix(1 0 0 -1 392 202.1)"><tspan x="0 6.4980001" y="0" style="font-size:9px;font-variant:normal;font-weight:400;writing-mode:lr-tb;fill:#1a1a1a;fill-opacity:1;fill-rule:nonzero;stroke:none;font-family:Liberation Sans;-inkscape-font-specification:LiberationSans">R7</tspan></text><path d="M397.8 183.6h-48.6V198h97.2v-14.4h-48.6z" style="fill:#fff;fill-opacity:1;fill-rule:evenodd;stroke:none"/><path d="M397.8 183.6h-48.6V198h97.2v-14.4h-48.6z" style="fill:none;stroke:#000;stroke-width:.70749998;stroke-linecap:butt;stroke-linejoin:round;stroke-miterlimit:10;stroke-opacity:1;stroke-dasharray:none"/><text transform="matrix(1 0 0 -1 392 187.7)"><tspan x="0 6.4980001" y="0" style="font-size:9px;font-variant:normal;font-weight:400;writing-mode:lr-tb;fill:#1a1a1a;fill-opacity:1;fill-rule:nonzero;stroke:none;font-family:Liberation Sans;-inkscape-font-specification:LiberationSans">R8</tspan></text><path d="M397.8 169.2h-48.6v14.4h97.2v-14.4h-48.6z" style="fill:#fff;fill-opacity:1;fill-rule:evenodd;stroke:none"/><path d="M397.8 169.2h-48.6v14.4h97.2v-14.4h-48.6z" style="fill:none;stroke:#000;stroke-width:.70749998;stroke-linecap:butt;stroke-linejoin:round;stroke-miterlimit:10;stroke-opacity:1;stroke-dasharray:none"/><text transform="matrix(1 0 0 -1 392 173.3)"><tspan x="0 6.4980001" y="0" style="font-size:9px;font-variant:normal;font-weight:400;writing-mode:lr-tb;fill:#1a1a1a;fill-opacity:1;fill-rule:nonzero;stroke:none;font-family:Liberation Sans;-inkscape-font-specification:LiberationSans">R9</tspan></text><path d="M397.8 154.8h-48.6v14.4h97.2v-14.4h-48.6z" style="fill:#fff;fill-opacity:1;fill-rule:evenodd;stroke:none"/><path d="M397.8 154.8h-48.6v14.4h97.2v-14.4h-48.6z" style="fill:none;stroke:#000;stroke-width:.70749998;stroke-linecap:butt;stroke-linejoin:round;stroke-miterlimit:10;stroke-opacity:1;stroke-dasharray:none"/><text transform="matrix(1 0 0 -1 389.5 158.9)"><tspan x="0 6.4980001 11.502" y="0" style="font-size:9px;font-variant:normal;font-weight:400;writing-mode:lr-tb;fill:#1a1a1a;fill-opacity:1;fill-rule:nonzero;stroke:none;font-family:Liberation Sans;-inkscape-font-specification:LiberationSans">R10</tspan></text><path d="M397.8 140.4h-48.6v14.4h97.2v-14.4h-48.6z" style="fill:#fff;fill-opacity:1;fill-rule:evenodd;stroke:none"/><path d="M397.8 140.4h-48.6v14.4h97.2v-14.4h-48.6z" style="fill:none;stroke:#000;stroke-width:.70749998;stroke-linecap:butt;stroke-linejoin:round;stroke-miterlimit:10;stroke-opacity:1;stroke-dasharray:none"/><text transform="matrix(1 0 0 -1 389.5 144.5)"><tspan x="0 6.4980001 11.502" y="0" style="font-size:9px;font-variant:normal;font-weight:400;writing-mode:lr-tb;fill:#1a1a1a;fill-opacity:1;fill-rule:nonzero;stroke:none;font-family:Liberation Sans;-inkscape-font-specification:LiberationSans">R11</tspan></text><path d="M397.8 126h-48.6v14.4h97.2V126h-48.6z" style="fill:#fff;fill-opacity:1;fill-rule:evenodd;stroke:none"/><path d="M397.8 126h-48.6v14.4h97.2V126h-48.6z" style="fill:none;stroke:#000;stroke-width:.70749998;stroke-linecap:butt;stroke-linejoin:round;stroke-miterlimit:10;stroke-opacity:1;stroke-dasharray:none"/><text transform="matrix(1 0 0 -1 389.5 130.1)"><tspan x="0 6.4980001 11.502" y="0" style="font-size:9px;font-variant:normal;font-weight:400;writing-mode:lr-tb;fill:#1a1a1a;fill-opacity:1;fill-rule:nonzero;stroke:none;font-family:Liberation Sans;-inkscape-font-specification:LiberationSans">R12</tspan></text><path d="M397.8 111.6h-48.6V126h97.2v-14.4h-48.6z" style="fill:#fff;fill-opacity:1;fill-rule:evenodd;stroke:none"/><path d="M397.8 111.6h-48.6V126h97.2v-14.4h-48.6z" style="fill:none;stroke:#000;stroke-width:.70749998;stroke-linecap:butt;stroke-linejoin:round;stroke-miterlimit:10;stroke-opacity:1;stroke-dasharray:none"/><text transform="matrix(1 0 0 -1 389.5 115.7)"><tspan x="0 6.4980001 11.502" y="0" style="font-size:9px;font-variant:normal;font-weight:400;writing-mode:lr-tb;fill:#1a1a1a;fill-opacity:1;fill-rule:nonzero;stroke:none;font-family:Liberation Sans;-inkscape-font-specification:LiberationSans">R13</tspan></text><path d="M397.8 97.2h-48.6v14.4h97.2V97.2h-48.6z" style="fill:#fff;fill-opacity:1;fill-rule:evenodd;stroke:none"/><path d="M397.8 97.2h-48.6v14.4h97.2V97.2h-48.6z" style="fill:none;stroke:#000;stroke-width:.70749998;stroke-linecap:butt;stroke-linejoin:round;stroke-miterlimit:10;stroke-opacity:1;stroke-dasharray:none"/><text transform="matrix(1 0 0 -1 389.5 101.3)"><tspan x="0 6.4980001 11.502" y="0" style="font-size:9px;font-variant:normal;font-weight:400;writing-mode:lr-tb;fill:#1a1a1a;fill-opacity:1;fill-rule:nonzero;stroke:none;font-family:Liberation Sans;-inkscape-font-specification:LiberationSans">R14</tspan></text><text transform="matrix(1 0 0 -1 310.2 302.9)"><tspan x="0 5.0040002 10.098 15.102 20.106001 25.200001" y="0" style="font-size:9px;font-variant:normal;font-weight:400;writing-mode:lr-tb;fill:#1a1a1a;fill-opacity:1;fill-rule:nonzero;stroke:none;font-family:Liberation Sans;-inkscape-font-specification:LiberationSans">00000 </tspan></text><text transform="matrix(1 0 0 -1 310.2 288.5)"><tspan x="0 5.0040002 10.098 15.102 20.106001 25.200001" y="0" style="font-size:9px;font-variant:normal;font-weight:400;writing-mode:lr-tb;fill:#1a1a1a;fill-opacity:1;fill-rule:nonzero;stroke:none;font-family:Liberation Sans;-inkscape-font-specification:LiberationSans">00001 </tspan></text><text transform="matrix(1 0 0 -1 310 274.1)"><tspan x="0 5.0040002 10.098 15.102 20.106001" y="0" style="font-size:9px;font-variant:normal;font-weight:400;writing-mode:lr-tb;fill:#1a1a1a;fill-opacity:1;fill-rule:nonzero;stroke:none;font-family:Liberation Sans;-inkscape-font-specification:LiberationSans">00010</tspan></text><text transform="matrix(1 0 0 -1 310.2 259.7)"><tspan x="0 5.0040002 10.098 15.102 20.106001 25.200001" y="0" style="font-size:9px;font-variant:normal;font-weight:400;writing-mode:lr-tb;fill:#1a1a1a;fill-opacity:1;fill-rule:nonzero;stroke:none;font-family:Liberation Sans;-inkscape-font-specification:LiberationSans">00011 </tspan></text><text transform="matrix(1 0 0 -1 310.2 245.3)"><tspan x="0 5.0040002 10.098 15.102 20.106001 25.200001" y="0" style="font-size:9px;font-variant:normal;font-weight:400;writing-mode:lr-tb;fill:#1a1a1a;fill-opacity:1;fill-rule:nonzero;stroke:none;font-family:Liberation Sans;-inkscape-font-specification:LiberationSans">00100 </tspan></text><text transform="matrix(1 0 0 -1 310.2 230.9)"><tspan x="0 5.0040002 10.098 15.102 20.106001 25.200001" y="0" style="font-size:9px;font-variant:normal;font-weight:400;writing-mode:lr-tb;fill:#1a1a1a;fill-opacity:1;fill-rule:nonzero;stroke:none;font-family:Liberation Sans;-inkscape-font-specification:LiberationSans">00101 </tspan></text><text transform="matrix(1 0 0 -1 310.2 216.5)"><tspan x="0 5.0040002 10.098 15.102 20.106001 25.200001" y="0" style="font-size:9px;font-variant:normal;font-weight:400;writing-mode:lr-tb;fill:#1a1a1a;fill-opacity:1;fill-rule:nonzero;stroke:none;font-family:Liberation Sans;-inkscape-font-specification:LiberationSans">00110 </tspan></text><text transform="matrix(1 0 0 -1 310.2 202.1)"><tspan x="0 5.0040002 10.098 15.102 20.106001 25.200001" y="0" style="font-size:9px;font-variant:normal;font-weight:400;writing-mode:lr-tb;fill:#1a1a1a;fill-opacity:1;fill-rule:nonzero;stroke:none;font-family:Liberation Sans;-inkscape-font-specification:LiberationSans">00111 </tspan></text><text transform="matrix(1 0 0 -1 310.2 187.7)"><tspan x="0 5.0040002 10.098 15.102 20.106001 25.200001" y="0" style="font-size:9px;font-variant:normal;font-weight:400;writing-mode:lr-tb;fill:#1a1a1a;fill-opacity:1;fill-rule:nonzero;stroke:none;font-family:Liberation Sans;-inkscape-font-specification:LiberationSans">01000 </tspan></text><text transform="matrix(1 0 0 -1 310.2 173.3)"><tspan x="0 5.0040002 10.098 15.102 20.106001 25.200001" y="0" style="font-size:9px;font-variant:normal;font-weight:400;writing-mode:lr-tb;fill:#1a1a1a;fill-opacity:1;fill-rule:nonzero;stroke:none;font-family:Liberation Sans;-inkscape-font-specification:LiberationSans">01001 </tspan></text><text transform="matrix(1 0 0 -1 310.2 158.9)"><tspan x="0 5.0040002 10.098 15.102 20.106001 25.200001" y="0" style="font-size:9px;font-variant:normal;font-weight:400;writing-mode:lr-tb;fill:#1a1a1a;fill-opacity:1;fill-rule:nonzero;stroke:none;font-family:Liberation Sans;-inkscape-font-specification:LiberationSans">01010 </tspan></text><text transform="matrix(1 0 0 -1 310.2 144.5)"><tspan x="0 5.0040002 10.098 15.102 20.106001 25.200001" y="0" style="font-size:9px;font-variant:normal;font-weight:400;writing-mode:lr-tb;fill:#1a1a1a;fill-opacity:1;fill-rule:nonzero;stroke:none;font-family:Liberation Sans;-inkscape-font-specification:LiberationSans">01011 </tspan></text><text transform="matrix(1 0 0 -1 310.2 130.1)"><tspan x="0 5.0040002 10.098 15.102 20.106001 25.200001" y="0" style="font-size:9px;font-variant:normal;font-weight:400;writing-mode:lr-tb;fill:#1a1a1a;fill-opacity:1;fill-rule:nonzero;stroke:none;font-family:Liberation Sans;-inkscape-font-specification:LiberationSans">01100 </tspan></text><text transform="matrix(1 0 0 -1 310.2 115.7)"><tspan x="0 5.0040002 10.098 15.102 20.106001 25.200001" y="0" style="font-size:9px;font-variant:normal;font-weight:400;writing-mode:lr-tb;fill:#1a1a1a;fill-opacity:1;fill-rule:nonzero;stroke:none;font-family:Liberation Sans;-inkscape-font-specification:LiberationSans">01101 </tspan></text><text transform="matrix(1 0 0 -1 310.2 101.3)"><tspan x="0 5.0040002 10.098 15.102 20.106001 25.200001" y="0" style="font-size:9px;font-variant:normal;font-weight:400;writing-mode:lr-tb;fill:#1a1a1a;fill-opacity:1;fill-rule:nonzero;stroke:none;font-family:Liberation Sans;-inkscape-font-specification:LiberationSans">01110 </tspan></text><text transform="matrix(1 0 0 -1 319.3 318.6)"><tspan x="0 6.5999999" y="0" style="font-size:10px;font-variant:normal;font-weight:400;writing-mode:lr-tb;fill:#1a1a1a;fill-opacity:1;fill-rule:nonzero;stroke:none;font-family:Liberation Sans;-inkscape-font-specification:LiberationSans">EN</tspan></text><text transform="matrix(1 0 0 -1 345.5 318.6)"><tspan x="0 6.5999999 12.1 14.89 18.190001 23.280001 25.98 28.18 33.68 36.470001 43.669998 49.169998 54.669998 56.869999 61.869999 64.660004 70.160004 73.459999 76.25 82.849998 88.349998 93.940002" y="0" style="font-size:10px;font-variant:normal;font-weight:400;writing-mode:lr-tb;fill:#1a1a1a;fill-opacity:1;fill-rule:nonzero;stroke:none;font-family:Liberation Sans;-inkscape-font-specification:LiberationSans">Entry in Register Bank</tspan></text><path d="M397.8 82.8h-48.6v14.4h97.2V82.8h-48.6z" style="fill:#fff;fill-opacity:1;fill-rule:evenodd;stroke:none"/><path d="M397.8 82.8h-48.6v14.4h97.2V82.8h-48.6z" style="fill:none;stroke:#000;stroke-width:.70749998;stroke-linecap:butt;stroke-linejoin:round;stroke-miterlimit:10;stroke-opacity:1;stroke-dasharray:none"/><text transform="matrix(1 0 0 -1 384.6 86.9)"><tspan x="0 7.3979998 13.392 19.889999" y="0" style="font-size:9px;font-variant:normal;font-weight:400;writing-mode:lr-tb;fill:#1a1a1a;fill-opacity:1;fill-rule:nonzero;stroke:none;font-family:Liberation Sans;-inkscape-font-specification:LiberationSans">MACH</tspan></text><path d="M397.8 68.4h-48.6v14.4h97.2V68.4h-48.6z" style="fill:#fff;fill-opacity:1;fill-rule:evenodd;stroke:none"/><path d="M397.8 68.4h-48.6v14.4h97.2V68.4h-48.6z" style="fill:none;stroke:#000;stroke-width:.70749998;stroke-linecap:butt;stroke-linejoin:round;stroke-miterlimit:10;stroke-opacity:1;stroke-dasharray:none"/><text transform="matrix(1 0 0 -1 355 72.5)"><tspan x="0 2.493 7.5869999 10.08 15.084 18.080999 21.077999 26.082001 31.176001 33.668999 36.161999 40.751999 45.756001 50.346001 52.839001 57.932999 60.93 63.423 68.427002 70.830002 73.322998 77.913002 82.917" y="0" style="font-size:9px;font-variant:normal;font-weight:400;writing-mode:lr-tb;fill:#1a1a1a;fill-opacity:1;fill-rule:nonzero;stroke:none;font-family:Liberation Sans;-inkscape-font-specification:LiberationSans">Interrupt vector offset</tspan></text><path d="M397.8 54h-48.6v14.4h97.2V54h-48.6z" style="fill:#fff;fill-opacity:1;fill-rule:evenodd;stroke:none"/><path d="M397.8 54h-48.6v14.4h97.2V54h-48.6z" style="fill:none;stroke:#000;stroke-width:.70749998;stroke-linecap:butt;stroke-linejoin:round;stroke-miterlimit:10;stroke-opacity:1;stroke-dasharray:none"/><text transform="matrix(1 0 0 -1 391.5 58.1)"><tspan x="0 6.0929999" y="0" style="font-size:9px;font-variant:normal;font-weight:400;writing-mode:lr-tb;fill:#1a1a1a;fill-opacity:1;fill-rule:nonzero;stroke:none;font-family:Liberation Sans;-inkscape-font-specification:LiberationSans">PR</tspan></text><path d="M397.8 39.6h-48.6V54h97.2V39.6h-48.6z" style="fill:#fff;fill-opacity:1;fill-rule:evenodd;stroke:none"/><path d="M397.8 39.6h-48.6V54h97.2V39.6h-48.6z" style="fill:none;stroke:#000;stroke-width:.70749998;stroke-linecap:butt;stroke-linejoin:round;stroke-miterlimit:10;stroke-opacity:1;stroke-dasharray:none"/><text transform="matrix(1 0 0 -1 388.1 43.7)"><tspan x="0 6.9029999 12.897" y="0" style="font-size:9px;font-variant:normal;font-weight:400;writing-mode:lr-tb;fill:#1a1a1a;fill-opacity:1;fill-rule:nonzero;stroke:none;font-family:Liberation Sans;-inkscape-font-specification:LiberationSans">GBR</tspan></text><path d="M397.8 25.2h-48.6v14.4h97.2V25.2h-48.6z" style="fill:#fff;fill-opacity:1;fill-rule:evenodd;stroke:none"/><path d="M397.8 25.2h-48.6v14.4h97.2V25.2h-48.6z" style="fill:none;stroke:#000;stroke-width:.70749998;stroke-linecap:butt;stroke-linejoin:round;stroke-miterlimit:10;stroke-opacity:1;stroke-dasharray:none"/><text transform="matrix(1 0 0 -1 385.3 29.3)"><tspan x="0 7.3979998 13.392 19.889999" y="0" style="font-size:9px;font-variant:normal;font-weight:400;writing-mode:lr-tb;fill:#1a1a1a;fill-opacity:1;fill-rule:nonzero;stroke:none;font-family:Liberation Sans;-inkscape-font-specification:LiberationSans">MACL</tspan></text><text transform="matrix(1 0 0 -1 310.2 86.9)"><tspan x="0 5.0040002 10.098 15.102 20.106001 25.200001" y="0" style="font-size:9px;font-variant:normal;font-weight:400;writing-mode:lr-tb;fill:#1a1a1a;fill-opacity:1;fill-rule:nonzero;stroke:none;font-family:Liberation Sans;-inkscape-font-specification:LiberationSans">01111 </tspan></text><text transform="matrix(1 0 0 -1 310.2 72.5)"><tspan x="0 5.0040002 10.098 15.102 20.106001 25.200001" y="0" style="font-size:9px;font-variant:normal;font-weight:400;writing-mode:lr-tb;fill:#1a1a1a;fill-opacity:1;fill-rule:nonzero;stroke:none;font-family:Liberation Sans;-inkscape-font-specification:LiberationSans">10000 </tspan></text><text transform="matrix(1 0 0 -1 310 58.1)"><tspan x="0 5.0040002 10.098 15.102 20.106001" y="0" style="font-size:9px;font-variant:normal;font-weight:400;writing-mode:lr-tb;fill:#1a1a1a;fill-opacity:1;fill-rule:nonzero;stroke:none;font-family:Liberation Sans;-inkscape-font-specification:LiberationSans">10001</tspan></text><text transform="matrix(1 0 0 -1 310.2 43.7)"><tspan x="0 5.0040002 10.098 15.102 20.106001 25.200001" y="0" style="font-size:9px;font-variant:normal;font-weight:400;writing-mode:lr-tb;fill:#1a1a1a;fill-opacity:1;fill-rule:nonzero;stroke:none;font-family:Liberation Sans;-inkscape-font-specification:LiberationSans">10010 </tspan></text><text transform="matrix(1 0 0 -1 310.2 29.3)"><tspan x="0 5.0040002 10.098 15.102 20.106001 25.200001" y="0" style="font-size:9px;font-variant:normal;font-weight:400;writing-mode:lr-tb;fill:#1a1a1a;fill-opacity:1;fill-rule:nonzero;stroke:none;font-family:Liberation Sans;-inkscape-font-specification:LiberationSans">10011 </tspan></text></g></svg>