<svg xmlns="http://www.w3.org/2000/svg" width="405" height="180" xml:space="preserve"><defs><clipPath id="a"><path d="M0 0h324v144H0V0z"/></clipPath></defs><g clip-path="url(#a)" transform="matrix(1.25 0 0 -1.25 0 180)"><path d="M0 144h324V0H0v144z" style="fill:#fff;fill-opacity:0;fill-rule:evenodd;stroke:none"/><path d="M219.1 90.2V56.8" style="fill:none;stroke:#000;stroke-width:.69999999;stroke-linecap:butt;stroke-linejoin:miter;stroke-miterlimit:10;stroke-opacity:1;stroke-dasharray:none"/><path d="m219.1 43.4 4.7 14h-9.3l4.6-14z" style="fill:#000;fill-opacity:1;fill-rule:evenodd;stroke:none"/><path d="M222.7 11h-79.2v32.4h158.4V11h-79.2z" style="fill:#fff;fill-opacity:1;fill-rule:evenodd;stroke:none"/><path d="M222.7 11h-79.2v32.4h158.4V11h-79.2z" style="fill:none;stroke:#000;stroke-width:.70749998;stroke-linecap:butt;stroke-linejoin:round;stroke-miterlimit:10;stroke-opacity:1;stroke-dasharray:none"/><text transform="matrix(1 0 0 -1 206.4 23.4)"><tspan x="0 6.1929998 12.298 15.389 21.493999 23.892 27.082001" y="0" style="font-size:11px;font-variant:normal;font-weight:400;writing-mode:lr-tb;fill:#1a1a1a;fill-opacity:1;fill-rule:nonzero;stroke:none;font-family:Liberation Sans;-inkscape-font-specification:LiberationSans">20 bits</tspan></text><path d="M98.2 11H52.8v32.4h90.7V11H98.2z" style="fill:#fff;fill-opacity:1;fill-rule:evenodd;stroke:none"/><path d="M98.2 11H52.8v32.4h90.7V11H98.2z" style="fill:none;stroke:#000;stroke-width:.70749998;stroke-linecap:butt;stroke-linejoin:round;stroke-miterlimit:10;stroke-opacity:1;stroke-dasharray:none"/><text transform="matrix(1 0 0 -1 62.1 23.4)"><tspan x="0 7.3039999 9.7019997 15.807 21.912001 25.003 31.195999 36.695999 39.786999 45.891998 51.997002 57.584999 59.983002 66.087997" y="0" style="font-size:11px;font-variant:normal;font-weight:400;writing-mode:lr-tb;fill:#1a1a1a;fill-opacity:1;fill-rule:nonzero;stroke:none;font-family:Liberation Sans;-inkscape-font-specification:LiberationSans">Sign extension</tspan></text><text transform="matrix(1 0 0 -1 141.1 125)"><tspan x="0 6.1929998" y="0" style="font-size:11px;font-variant:normal;font-weight:400;writing-mode:lr-tb;fill:#1a1a1a;fill-opacity:1;fill-rule:nonzero;stroke:none;font-family:Liberation Sans;-inkscape-font-specification:LiberationSans">19</tspan></text><text transform="matrix(1 0 0 -1 141.1 45.6)"><tspan x="0 6.1929998" y="0" style="font-size:11px;font-variant:normal;font-weight:400;writing-mode:lr-tb;fill:#1a1a1a;fill-opacity:1;fill-rule:nonzero;stroke:none;font-family:Liberation Sans;-inkscape-font-specification:LiberationSans">19</tspan></text><text transform="matrix(1 0 0 -1 294.2 125)"><tspan x="0" y="0" style="font-size:11px;font-variant:normal;font-weight:400;writing-mode:lr-tb;fill:#1a1a1a;fill-opacity:1;fill-rule:nonzero;stroke:none;font-family:Liberation Sans;-inkscape-font-specification:LiberationSans">0</tspan></text><text transform="matrix(1 0 0 -1 297 45.6)"><tspan x="0" y="0" style="font-size:11px;font-variant:normal;font-weight:400;writing-mode:lr-tb;fill:#1a1a1a;fill-opacity:1;fill-rule:nonzero;stroke:none;font-family:Liberation Sans;-inkscape-font-specification:LiberationSans">0</tspan></text><text transform="matrix(1 0 0 -1 53.3 45.6)"><tspan x="0 6.105" y="0" style="font-size:11px;font-variant:normal;font-weight:400;writing-mode:lr-tb;fill:#1a1a1a;fill-opacity:1;fill-rule:nonzero;stroke:none;font-family:Liberation Sans;-inkscape-font-specification:LiberationSans">31</tspan></text><path d="M222.7 90.4h-79.2v32.4h158.4V90.4h-79.2z" style="fill:#fff;fill-opacity:1;fill-rule:evenodd;stroke:none"/><path d="M222.7 90.4h-79.2v32.4h158.4V90.4h-79.2z" style="fill:none;stroke:#000;stroke-width:.70749998;stroke-linecap:butt;stroke-linejoin:round;stroke-miterlimit:10;stroke-opacity:1;stroke-dasharray:none"/><text transform="matrix(1 0 0 -1 206.4 102.8)"><tspan x="0 6.105 12.298 15.389 21.493999 23.892 26.983" y="0" style="font-size:11px;font-variant:normal;font-weight:400;writing-mode:lr-tb;fill:#1a1a1a;fill-opacity:1;fill-rule:nonzero;stroke:none;font-family:Liberation Sans;-inkscape-font-specification:LiberationSans">20 bits</tspan></text><text transform="matrix(1 0 0 -1 13.8 105.5)"><tspan x="0 2.398 11.682" y="0" style="font-size:11px;font-variant:normal;font-weight:400;writing-mode:lr-tb;fill:#1a1a1a;fill-opacity:1;fill-rule:nonzero;stroke:none;font-family:Liberation Sans;-inkscape-font-specification:LiberationSans">imm</tspan></text><text transform="matrix(1 0 0 -1 16.4 23)"><tspan x="0 7.8979998" y="0" style="font-size:11px;font-variant:normal;font-weight:400;writing-mode:lr-tb;fill:#1a1a1a;fill-opacity:1;fill-rule:nonzero;stroke:none;font-family:Liberation Sans;-inkscape-font-specification:LiberationSans">Rn</tspan></text></g></svg>