<svg xmlns="http://www.w3.org/2000/svg" width="450" height="135" xml:space="preserve"><defs><clipPath id="a"><path d="M0 0h360v108H0V0z"/></clipPath></defs><g clip-path="url(#a)" transform="matrix(1.25 0 0 -1.25 0 135)"><path d="M0 108h360V0H0v108z" style="fill:#fff;fill-opacity:0;fill-rule:evenodd;stroke:none"/><path d="M255.6 61.2h19.5" style="fill:none;stroke:#000;stroke-width:.69999999;stroke-linecap:butt;stroke-linejoin:miter;stroke-miterlimit:10;stroke-opacity:1;stroke-dasharray:none"/><path d="m284.4 61.2-9.7 3.2v-6.5l9.7 3.3z" style="fill:#000;fill-opacity:1;fill-rule:evenodd;stroke:none"/><text transform="matrix(1 0 0 -1 71.9 80.1)"><tspan x="0 9.1850004 16.489" y="0" style="font-size:11px;font-variant:normal;font-weight:400;writing-mode:lr-tb;fill:#1a1a1a;fill-opacity:1;fill-rule:nonzero;stroke:none;font-family:Liberation Sans;-inkscape-font-specification:LiberationSans">MSB</tspan></text><text transform="matrix(1 0 0 -1 244.7 80.1)"><tspan x="0 6.105 13.409" y="0" style="font-size:11px;font-variant:normal;font-weight:400;writing-mode:lr-tb;fill:#1a1a1a;fill-opacity:1;fill-rule:nonzero;stroke:none;font-family:Liberation Sans;-inkscape-font-specification:LiberationSans">LSB</tspan></text><path d="M171 43.2H86.4v32.4h169.2V43.2H171z" style="fill:#fff;fill-opacity:1;fill-rule:evenodd;stroke:none"/><path d="M171 43.2H86.4v32.4h169.2V43.2H171z" style="fill:none;stroke:#000;stroke-width:.70749998;stroke-linecap:butt;stroke-linejoin:round;stroke-miterlimit:10;stroke-opacity:1;stroke-dasharray:none"/><text transform="matrix(1 0 0 -1 164 55.6)"><tspan x="0 7.8979998" y="0" style="font-size:11px;font-variant:normal;font-weight:400;writing-mode:lr-tb;fill:#1a1a1a;fill-opacity:1;fill-rule:nonzero;stroke:none;font-family:Liberation Sans;-inkscape-font-specification:LiberationSans">Rn</tspan></text><text transform="matrix(1 0 0 -1 11 55.3)"><tspan x="0 7.8979998 16.587999 23.287001" y="0" style="font-size:11px;font-variant:normal;font-weight:400;writing-mode:lr-tb;fill:#1a1a1a;fill-opacity:1;fill-rule:nonzero;stroke:none;font-family:Liberation Sans;-inkscape-font-specification:LiberationSans">ROTR</tspan></text><path d="M295.2 43.2h-10.8v32.4H306V43.2h-10.8z" style="fill:#fff;fill-opacity:1;fill-rule:evenodd;stroke:none"/><path d="M295.2 43.2h-10.8v32.4H306V43.2h-10.8z" style="fill:none;stroke:#000;stroke-width:.70749998;stroke-linecap:butt;stroke-linejoin:round;stroke-miterlimit:10;stroke-opacity:1;stroke-dasharray:none"/><text transform="matrix(1 0 0 -1 291.9 55.6)"><tspan x="0" y="0" style="font-size:11px;font-variant:normal;font-weight:400;writing-mode:lr-tb;fill:#1a1a1a;fill-opacity:1;fill-rule:nonzero;stroke:none;font-family:Liberation Sans;-inkscape-font-specification:LiberationSans">T</tspan></text><path d="M266.4 61.2v-36M266.4 25.2H64.8M64.8 61.2v-36" style="fill:none;stroke:#000;stroke-width:.70749998;stroke-linecap:butt;stroke-linejoin:round;stroke-miterlimit:10;stroke-opacity:1;stroke-dasharray:none"/><path d="M77.1 61.2H64.8" style="fill:none;stroke:#000;stroke-width:.69999999;stroke-linecap:butt;stroke-linejoin:miter;stroke-miterlimit:10;stroke-opacity:1;stroke-dasharray:none"/><path d="m86.4 61.2-9.7 3.2v-6.5l9.7 3.3z" style="fill:#000;fill-opacity:1;fill-rule:evenodd;stroke:none"/></g></svg>