<svg xmlns="http://www.w3.org/2000/svg" width="675" height="315" xml:space="preserve"><defs><clipPath id="a"><path d="M0 0h540v252H0V0z"/></clipPath></defs><g clip-path="url(#a)" transform="matrix(1.25 0 0 -1.25 0 315)"><path d="M0 252h540V0H0v252z" style="fill:#fff;fill-opacity:0;fill-rule:evenodd;stroke:none"/><path d="M219.6 158.4h-54v46.8h108v-46.8h-54z" style="fill:#b3b3b3;fill-opacity:1;fill-rule:evenodd;stroke:none"/><path d="M172.8 133.2H72v36h201.6v-36H172.8zM403.2 97.2H360v36h86.4v-36h-43.2z" style="fill:#b3b3b3;fill-opacity:1;fill-rule:evenodd;stroke:none"/><text transform="matrix(1 0 0 -1 410.6 102.8)"><tspan x="0 2.2 7.6999998 12.79 18.290001 20.389999 22.59" y="0" style="font-size:10px;font-variant:normal;font-weight:400;writing-mode:lr-tb;fill:#1a1a1a;fill-opacity:1;fill-rule:nonzero;stroke:none;font-family:Liberation Sans;-inkscape-font-specification:LiberationSans">invalid</tspan></text><path d="M316.8 61.2h-43.2v36H360v-36h-43.2z" style="fill:#b3b3b3;fill-opacity:1;fill-rule:evenodd;stroke:none"/><text transform="matrix(1 0 0 -1 453.8 48.8)"><tspan x="0 5.5900002 12.79 18.290001" y="0" style="font-size:10px;font-variant:normal;font-weight:400;writing-mode:lr-tb;fill:#1a1a1a;fill-opacity:1;fill-rule:nonzero;stroke:none;font-family:Liberation Sans;-inkscape-font-specification:LiberationSans">qNaN</tspan></text><path d="M284.4 25.2H72v18h424.8v-18H284.4z" style="fill:#b3b3b3;fill-opacity:1;fill-rule:evenodd;stroke:none"/><path d="M511.2 36h-21.6v169.2h43.2V36h-21.6z" style="fill:#b3b3b3;fill-opacity:1;fill-rule:evenodd;stroke:none"/><path d="M511.2 25.2h-21.6v18h43.2v-18h-21.6z" style="fill:#b3b3b3;fill-opacity:1;fill-rule:evenodd;stroke:none"/><text transform="matrix(1 0 0 -1 497 30.8)"><tspan x="0 2.2 7.6999998 12.79 18.290001 20.389999 22.59" y="0" style="font-size:10px;font-variant:normal;font-weight:400;writing-mode:lr-tb;fill:#1a1a1a;fill-opacity:1;fill-rule:nonzero;stroke:none;font-family:Liberation Sans;-inkscape-font-specification:LiberationSans">invalid</tspan></text><text transform="matrix(1 0 0 -1 324.2 66.8)"><tspan x="0 2.2 7.6999998 12.79 18.290001 20.389999 22.59" y="0" style="font-size:10px;font-variant:normal;font-weight:400;writing-mode:lr-tb;fill:#1a1a1a;fill-opacity:1;fill-rule:nonzero;stroke:none;font-family:Liberation Sans;-inkscape-font-specification:LiberationSans">invalid</tspan></text><text transform="matrix(1 0 0 -1 83 192.8)"><tspan x="0 6.0999999 14.4 21.6" y="0" style="font-size:10px;font-variant:normal;font-weight:400;writing-mode:lr-tb;fill:#1a1a1a;fill-opacity:1;fill-rule:nonzero;stroke:none;font-family:Liberation Sans;-inkscape-font-specification:LiberationSans">FMUL</tspan></text><path d="M43.2 205.2H14.4v18H72v-18H43.2z" style="fill:none;stroke:#000;stroke-width:.70749998;stroke-linecap:butt;stroke-linejoin:round;stroke-miterlimit:10;stroke-opacity:1;stroke-dasharray:none"/><text transform="matrix(1 0 0 -1 39.1 210.8)"><tspan x="0" y="0" style="font-size:10px;font-variant:normal;font-weight:400;writing-mode:lr-tb;fill:#1a1a1a;fill-opacity:1;fill-rule:nonzero;stroke:none;font-family:Liberation Sans;-inkscape-font-specification:LiberationSans">m</tspan></text><path d="M43.2 187.2H14.4v18H72v-18H43.2z" style="fill:none;stroke:#000;stroke-width:.70749998;stroke-linecap:butt;stroke-linejoin:round;stroke-miterlimit:10;stroke-opacity:1;stroke-dasharray:none"/><text transform="matrix(1 0 0 -1 25.1 192.8)"><tspan x="0 5.6999998 12.9 20.690001 27.889999" y="0" style="font-size:10px;font-variant:normal;font-weight:400;writing-mode:lr-tb;fill:#1a1a1a;fill-opacity:1;fill-rule:nonzero;stroke:none;font-family:Liberation Sans;-inkscape-font-specification:LiberationSans">+NORM</tspan></text><path d="M43.2 169.2H14.4v18H72v-18H43.2z" style="fill:none;stroke:#000;stroke-width:.70749998;stroke-linecap:butt;stroke-linejoin:round;stroke-miterlimit:10;stroke-opacity:1;stroke-dasharray:none"/><text transform="matrix(1 0 0 -1 26.3 174.8)"><tspan x="0 3.3900001 10.59 18.290001 25.49" y="0" style="font-size:10px;font-variant:normal;font-weight:400;writing-mode:lr-tb;fill:#1a1a1a;fill-opacity:1;fill-rule:nonzero;stroke:none;font-family:Liberation Sans;-inkscape-font-specification:LiberationSans">-NORM</tspan></text><path d="M43.2 115.2H14.4v18H72v-18H43.2z" style="fill:none;stroke:#000;stroke-width:.70749998;stroke-linecap:butt;stroke-linejoin:round;stroke-miterlimit:10;stroke-opacity:1;stroke-dasharray:none"/><text transform="matrix(1 0 0 -1 37.6 120.8)"><tspan x="0 5.6999998" y="0" style="font-size:10px;font-variant:normal;font-weight:400;writing-mode:lr-tb;fill:#1a1a1a;fill-opacity:1;fill-rule:nonzero;stroke:none;font-family:Liberation Sans;-inkscape-font-specification:LiberationSans">+0</tspan></text><path d="M43.2 97.2H14.4v18H72v-18H43.2z" style="fill:none;stroke:#000;stroke-width:.70749998;stroke-linecap:butt;stroke-linejoin:round;stroke-miterlimit:10;stroke-opacity:1;stroke-dasharray:none"/><text transform="matrix(1 0 0 -1 38.8 102.8)"><tspan x="0 3.3900001" y="0" style="font-size:10px;font-variant:normal;font-weight:400;writing-mode:lr-tb;fill:#1a1a1a;fill-opacity:1;fill-rule:nonzero;stroke:none;font-family:Liberation Sans;-inkscape-font-specification:LiberationSans">-0</tspan></text><path d="M43.2 79.2H14.4v18H72v-18H43.2z" style="fill:none;stroke:#000;stroke-width:.70749998;stroke-linecap:butt;stroke-linejoin:round;stroke-miterlimit:10;stroke-opacity:1;stroke-dasharray:none"/><text transform="matrix(1 0 0 -1 35.1 84.8)"><tspan x="0 5.6999998 7.9000001 13.4" y="0" style="font-size:10px;font-variant:normal;font-weight:400;writing-mode:lr-tb;fill:#1a1a1a;fill-opacity:1;fill-rule:nonzero;stroke:none;font-family:Liberation Sans;-inkscape-font-specification:LiberationSans">+inf</tspan></text><path d="M43.2 61.2H14.4v18H72v-18H43.2z" style="fill:none;stroke:#000;stroke-width:.70749998;stroke-linecap:butt;stroke-linejoin:round;stroke-miterlimit:10;stroke-opacity:1;stroke-dasharray:none"/><text transform="matrix(1 0 0 -1 36.3 66.8)"><tspan x="0 3.3900001 5.4899998 10.99" y="0" style="font-size:10px;font-variant:normal;font-weight:400;writing-mode:lr-tb;fill:#1a1a1a;fill-opacity:1;fill-rule:nonzero;stroke:none;font-family:Liberation Sans;-inkscape-font-specification:LiberationSans">-inf</tspan></text><path d="M43.2 43.2H14.4v18H72v-18H43.2z" style="fill:none;stroke:#000;stroke-width:.70749998;stroke-linecap:butt;stroke-linejoin:round;stroke-miterlimit:10;stroke-opacity:1;stroke-dasharray:none"/><text transform="matrix(1 0 0 -1 30.5 48.8)"><tspan x="0 5.5 12.7 18.200001" y="0" style="font-size:10px;font-variant:normal;font-weight:400;writing-mode:lr-tb;fill:#1a1a1a;fill-opacity:1;fill-rule:nonzero;stroke:none;font-family:Liberation Sans;-inkscape-font-specification:LiberationSans">qNaN</tspan></text><path d="M43.2 25.2H14.4v18H72v-18H43.2z" style="fill:none;stroke:#000;stroke-width:.70749998;stroke-linecap:butt;stroke-linejoin:round;stroke-miterlimit:10;stroke-opacity:1;stroke-dasharray:none"/><text transform="matrix(1 0 0 -1 30.7 30.8)"><tspan x="0 5.0900002 12.29 17.790001" y="0" style="font-size:10px;font-variant:normal;font-weight:400;writing-mode:lr-tb;fill:#1a1a1a;fill-opacity:1;fill-rule:nonzero;stroke:none;font-family:Liberation Sans;-inkscape-font-specification:LiberationSans">sNaN</tspan></text><path d="M95.4 205.2H72v18h46.8v-18H95.4z" style="fill:none;stroke:#000;stroke-width:.70749998;stroke-linecap:butt;stroke-linejoin:round;stroke-miterlimit:10;stroke-opacity:1;stroke-dasharray:none"/><text transform="matrix(1 0 0 -1 77.2 210.8)"><tspan x="0 5.8000002 13 20.790001 27.99" y="0" style="font-size:10px;font-variant:normal;font-weight:400;writing-mode:lr-tb;fill:#1a1a1a;fill-opacity:1;fill-rule:nonzero;stroke:none;font-family:Liberation Sans;-inkscape-font-specification:LiberationSans">+NORM</tspan></text><path d="M142.2 205.2h-23.4v18h46.8v-18h-23.4z" style="fill:none;stroke:#000;stroke-width:.70749998;stroke-linecap:butt;stroke-linejoin:round;stroke-miterlimit:10;stroke-opacity:1;stroke-dasharray:none"/><text transform="matrix(1 0 0 -1 125.2 210.8)"><tspan x="0 3.3900001 10.59 18.379999 25.58" y="0" style="font-size:10px;font-variant:normal;font-weight:400;writing-mode:lr-tb;fill:#1a1a1a;fill-opacity:1;fill-rule:nonzero;stroke:none;font-family:Liberation Sans;-inkscape-font-specification:LiberationSans">-NORM</tspan></text><path d="M295.2 205.2h-21.6v18h43.2v-18h-21.6z" style="fill:none;stroke:#000;stroke-width:.70749998;stroke-linecap:butt;stroke-linejoin:round;stroke-miterlimit:10;stroke-opacity:1;stroke-dasharray:none"/><text transform="matrix(1 0 0 -1 289.6 210.8)"><tspan x="0 5.6999998" y="0" style="font-size:10px;font-variant:normal;font-weight:400;writing-mode:lr-tb;fill:#1a1a1a;fill-opacity:1;fill-rule:nonzero;stroke:none;font-family:Liberation Sans;-inkscape-font-specification:LiberationSans">+0</tspan></text><path d="M338.4 205.2h-21.6v18H360v-18h-21.6z" style="fill:none;stroke:#000;stroke-width:.70749998;stroke-linecap:butt;stroke-linejoin:round;stroke-miterlimit:10;stroke-opacity:1;stroke-dasharray:none"/><text transform="matrix(1 0 0 -1 334 210.8)"><tspan x="0 3.3900001" y="0" style="font-size:10px;font-variant:normal;font-weight:400;writing-mode:lr-tb;fill:#1a1a1a;fill-opacity:1;fill-rule:nonzero;stroke:none;font-family:Liberation Sans;-inkscape-font-specification:LiberationSans">-0</tspan></text><path d="M381.6 205.2H360v18h43.2v-18h-21.6z" style="fill:none;stroke:#000;stroke-width:.70749998;stroke-linecap:butt;stroke-linejoin:round;stroke-miterlimit:10;stroke-opacity:1;stroke-dasharray:none"/><text transform="matrix(1 0 0 -1 373.5 210.8)"><tspan x="0 5.6999998 7.9000001 13.4" y="0" style="font-size:10px;font-variant:normal;font-weight:400;writing-mode:lr-tb;fill:#1a1a1a;fill-opacity:1;fill-rule:nonzero;stroke:none;font-family:Liberation Sans;-inkscape-font-specification:LiberationSans">+inf</tspan></text><path d="M424.8 205.2h-21.6v18h43.2v-18h-21.6z" style="fill:none;stroke:#000;stroke-width:.70749998;stroke-linecap:butt;stroke-linejoin:round;stroke-miterlimit:10;stroke-opacity:1;stroke-dasharray:none"/><text transform="matrix(1 0 0 -1 417.9 210.8)"><tspan x="0 3.3900001 5.4899998 10.99" y="0" style="font-size:10px;font-variant:normal;font-weight:400;writing-mode:lr-tb;fill:#1a1a1a;fill-opacity:1;fill-rule:nonzero;stroke:none;font-family:Liberation Sans;-inkscape-font-specification:LiberationSans">-inf</tspan></text><path d="M302.4 223.2H72v18h460.8v-18H302.4z" style="fill:none;stroke:#000;stroke-width:.70749998;stroke-linecap:butt;stroke-linejoin:round;stroke-miterlimit:10;stroke-opacity:1;stroke-dasharray:none"/><text transform="matrix(1 0 0 -1 299.7 228.8)"><tspan x="0" y="0" style="font-size:10px;font-variant:normal;font-weight:400;writing-mode:lr-tb;fill:#1a1a1a;fill-opacity:1;fill-rule:nonzero;stroke:none;font-family:Liberation Sans;-inkscape-font-specification:LiberationSans">n</tspan></text><path d="M468 205.2h-21.6v18h43.2v-18H468z" style="fill:none;stroke:#000;stroke-width:.70749998;stroke-linecap:butt;stroke-linejoin:round;stroke-miterlimit:10;stroke-opacity:1;stroke-dasharray:none"/><text transform="matrix(1 0 0 -1 455.3 210.8)"><tspan x="0 5.5 12.7 18.200001" y="0" style="font-size:10px;font-variant:normal;font-weight:400;writing-mode:lr-tb;fill:#1a1a1a;fill-opacity:1;fill-rule:nonzero;stroke:none;font-family:Liberation Sans;-inkscape-font-specification:LiberationSans">qNaN</tspan></text><path d="M511.2 205.2h-21.6v18h43.2v-18h-21.6z" style="fill:none;stroke:#000;stroke-width:.70749998;stroke-linecap:butt;stroke-linejoin:round;stroke-miterlimit:10;stroke-opacity:1;stroke-dasharray:none"/><text transform="matrix(1 0 0 -1 498.7 210.8)"><tspan x="0 5.0900002 12.29 17.790001" y="0" style="font-size:10px;font-variant:normal;font-weight:400;writing-mode:lr-tb;fill:#1a1a1a;fill-opacity:1;fill-rule:nonzero;stroke:none;font-family:Liberation Sans;-inkscape-font-specification:LiberationSans">sNaN</tspan></text><path d="M72 205.2v-180M72 205.2h460.8" style="fill:none;stroke:#000;stroke-width:2.15078998;stroke-linecap:butt;stroke-linejoin:round;stroke-miterlimit:10;stroke-opacity:1;stroke-dasharray:none"/><path d="M72 25.2h460.8M532.8 25.2v180M72 61.2h374.4M72 43.2h417.6M489.6 43.2v162" style="fill:none;stroke:#000;stroke-width:.70749998;stroke-linecap:butt;stroke-linejoin:round;stroke-miterlimit:10;stroke-opacity:1;stroke-dasharray:none"/><text transform="matrix(1 0 0 -1 21.5 8.1)"><tspan x="0 7.8979998 14.003 17.094 23.287001" y="0" style="font-size:11px;font-variant:normal;font-weight:400;writing-mode:lr-tb;fill:#1a1a1a;fill-opacity:1;fill-rule:nonzero;stroke:none;font-family:Liberation Sans;-inkscape-font-specification:LiberationSans">Note:</tspan></text><text transform="matrix(1 0 0 -1 57.5 8.1)"><tspan x="0 10.384 16.489 22.681999 28.787001 31.878 39.776001 47.762001 50.853001 57.342999 60.433998 66.539001 69.629997 72.721001 75.911003 82.015999 88.121002 91.211998 96.711998 102.817 105.303 111.408 117.513 120.604 126.709 129.899 132.99001 139.095 142.186 148.291 154.48399 160.589 166.694 170.379 179.66299 185.76801 188.166 190.564 196.064 202.16901 208.274 211.36501 217.558 223.66299 232.84801 238.953 245.146 248.83099 251.922 254.32001 259.82001 263.01001 266.10101 269.78601 275.89099 281.996 285.186 291.29099 297.396 300.487 306.59201 312.09201 315.28201 321.38699" y="0" style="font-size:11px;font-variant:normal;font-weight:400;writing-mode:lr-tb;fill:#1a1a1a;fill-opacity:1;fill-rule:nonzero;stroke:none;font-family:Liberation Sans;-inkscape-font-specification:LiberationSans">When DN = 1, the value of a denormalized number is treated as 0.</tspan></text><path d="M295.2 187.2h-21.6v18h43.2v-18h-21.6z" style="fill:none;stroke:#000;stroke-width:.70749998;stroke-linecap:butt;stroke-linejoin:round;stroke-miterlimit:10;stroke-opacity:1;stroke-dasharray:none"/><text transform="matrix(1 0 0 -1 289.6 192.8)"><tspan x="0 5.6999998" y="0" style="font-size:10px;font-variant:normal;font-weight:400;writing-mode:lr-tb;fill:#1a1a1a;fill-opacity:1;fill-rule:nonzero;stroke:none;font-family:Liberation Sans;-inkscape-font-specification:LiberationSans">+0</tspan></text><path d="M338.4 187.2h-21.6v18H360v-18h-21.6z" style="fill:none;stroke:#000;stroke-width:.70749998;stroke-linecap:butt;stroke-linejoin:round;stroke-miterlimit:10;stroke-opacity:1;stroke-dasharray:none"/><text transform="matrix(1 0 0 -1 334 192.8)"><tspan x="0 3.3900001" y="0" style="font-size:10px;font-variant:normal;font-weight:400;writing-mode:lr-tb;fill:#1a1a1a;fill-opacity:1;fill-rule:nonzero;stroke:none;font-family:Liberation Sans;-inkscape-font-specification:LiberationSans">-0</tspan></text><path d="M295.2 169.2h-21.6v18h43.2v-18h-21.6z" style="fill:none;stroke:#000;stroke-width:.70749998;stroke-linecap:butt;stroke-linejoin:round;stroke-miterlimit:10;stroke-opacity:1;stroke-dasharray:none"/><text transform="matrix(1 0 0 -1 290.8 174.8)"><tspan x="0 3.3900001" y="0" style="font-size:10px;font-variant:normal;font-weight:400;writing-mode:lr-tb;fill:#1a1a1a;fill-opacity:1;fill-rule:nonzero;stroke:none;font-family:Liberation Sans;-inkscape-font-specification:LiberationSans">-0</tspan></text><path d="M338.4 169.2h-21.6v18H360v-18h-21.6z" style="fill:none;stroke:#000;stroke-width:.70749998;stroke-linecap:butt;stroke-linejoin:round;stroke-miterlimit:10;stroke-opacity:1;stroke-dasharray:none"/><text transform="matrix(1 0 0 -1 332.8 174.8)"><tspan x="0 5.6999998" y="0" style="font-size:10px;font-variant:normal;font-weight:400;writing-mode:lr-tb;fill:#1a1a1a;fill-opacity:1;fill-rule:nonzero;stroke:none;font-family:Liberation Sans;-inkscape-font-specification:LiberationSans">+0</tspan></text><path d="M424.8 187.2h-21.6v18h43.2v-18h-21.6z" style="fill:none;stroke:#000;stroke-width:.70749998;stroke-linecap:butt;stroke-linejoin:round;stroke-miterlimit:10;stroke-opacity:1;stroke-dasharray:none"/><text transform="matrix(1 0 0 -1 417.9 192.8)"><tspan x="0 3.3900001 5.4899998 10.99" y="0" style="font-size:10px;font-variant:normal;font-weight:400;writing-mode:lr-tb;fill:#1a1a1a;fill-opacity:1;fill-rule:nonzero;stroke:none;font-family:Liberation Sans;-inkscape-font-specification:LiberationSans">-inf</tspan></text><path d="M424.8 61.2h-21.6v18h43.2v-18h-21.6z" style="fill:none;stroke:#000;stroke-width:.70749998;stroke-linecap:butt;stroke-linejoin:round;stroke-miterlimit:10;stroke-opacity:1;stroke-dasharray:none"/><text transform="matrix(1 0 0 -1 416.7 66.8)"><tspan x="0 5.6999998 7.9000001 13.4" y="0" style="font-size:10px;font-variant:normal;font-weight:400;writing-mode:lr-tb;fill:#1a1a1a;fill-opacity:1;fill-rule:nonzero;stroke:none;font-family:Liberation Sans;-inkscape-font-specification:LiberationSans">+inf</tspan></text><path d="M446.4 61.2v140.4M192.6 205.2h-27v18h54v-18h-27z" style="fill:none;stroke:#000;stroke-width:.70749998;stroke-linecap:butt;stroke-linejoin:round;stroke-miterlimit:10;stroke-opacity:1;stroke-dasharray:none"/><text transform="matrix(1 0 0 -1 167.6 210.8)"><tspan x="0 5.6999998 12.9 19.5 26.700001 34.490002 41.689999" y="0" style="font-size:10px;font-variant:normal;font-weight:400;writing-mode:lr-tb;fill:#1a1a1a;fill-opacity:1;fill-rule:nonzero;stroke:none;font-family:Liberation Sans;-inkscape-font-specification:LiberationSans">+DENORM</tspan></text><path d="M246.6 205.2h-27v18h54v-18h-27z" style="fill:none;stroke:#000;stroke-width:.70749998;stroke-linecap:butt;stroke-linejoin:round;stroke-miterlimit:10;stroke-opacity:1;stroke-dasharray:none"/><text transform="matrix(1 0 0 -1 222.7 210.8)"><tspan x="0 3.3900001 10.59 17.190001 24.389999 32.18 39.380001" y="0" style="font-size:10px;font-variant:normal;font-weight:400;writing-mode:lr-tb;fill:#1a1a1a;fill-opacity:1;fill-rule:nonzero;stroke:none;font-family:Liberation Sans;-inkscape-font-specification:LiberationSans">-DENORM</tspan></text><path d="M43.2 151.2H14.4v18H72v-18H43.2z" style="fill:none;stroke:#000;stroke-width:.70749998;stroke-linecap:butt;stroke-linejoin:round;stroke-miterlimit:10;stroke-opacity:1;stroke-dasharray:none"/><text transform="matrix(1 0 0 -1 18.2 156.8)"><tspan x="0 5.6999998 12.9 19.5 26.700001 34.490002 41.689999" y="0" style="font-size:10px;font-variant:normal;font-weight:400;writing-mode:lr-tb;fill:#1a1a1a;fill-opacity:1;fill-rule:nonzero;stroke:none;font-family:Liberation Sans;-inkscape-font-specification:LiberationSans">+DENORM</tspan></text><path d="M43.2 133.2H14.4v18H72v-18H43.2z" style="fill:none;stroke:#000;stroke-width:.70749998;stroke-linecap:butt;stroke-linejoin:round;stroke-miterlimit:10;stroke-opacity:1;stroke-dasharray:none"/><text transform="matrix(1 0 0 -1 19.4 138.8)"><tspan x="0 3.3 10.5 17.1 24.299999 32.09 39.290001" y="0" style="font-size:10px;font-variant:normal;font-weight:400;writing-mode:lr-tb;fill:#1a1a1a;fill-opacity:1;fill-rule:nonzero;stroke:none;font-family:Liberation Sans;-inkscape-font-specification:LiberationSans">-DENORM</tspan></text><path d="M424.8 79.2h-21.6v18h43.2v-18h-21.6z" style="fill:none;stroke:#000;stroke-width:.70749998;stroke-linecap:butt;stroke-linejoin:round;stroke-miterlimit:10;stroke-opacity:1;stroke-dasharray:none"/><text transform="matrix(1 0 0 -1 417.9 84.8)"><tspan x="0 3.3900001 5.4899998 10.99" y="0" style="font-size:10px;font-variant:normal;font-weight:400;writing-mode:lr-tb;fill:#1a1a1a;fill-opacity:1;fill-rule:nonzero;stroke:none;font-family:Liberation Sans;-inkscape-font-specification:LiberationSans">-inf</tspan></text><path d="M381.6 79.2H360v18h43.2v-18h-21.6z" style="fill:none;stroke:#000;stroke-width:.70749998;stroke-linecap:butt;stroke-linejoin:round;stroke-miterlimit:10;stroke-opacity:1;stroke-dasharray:none"/><text transform="matrix(1 0 0 -1 373.5 84.8)"><tspan x="0 5.6999998 7.9000001 13.4" y="0" style="font-size:10px;font-variant:normal;font-weight:400;writing-mode:lr-tb;fill:#1a1a1a;fill-opacity:1;fill-rule:nonzero;stroke:none;font-family:Liberation Sans;-inkscape-font-specification:LiberationSans">+inf</tspan></text><path d="M381.6 61.2H360v18h43.2v-18h-21.6z" style="fill:none;stroke:#000;stroke-width:.70749998;stroke-linecap:butt;stroke-linejoin:round;stroke-miterlimit:10;stroke-opacity:1;stroke-dasharray:none"/><text transform="matrix(1 0 0 -1 374.7 66.8)"><tspan x="0 3.3900001 5.4899998 10.99" y="0" style="font-size:10px;font-variant:normal;font-weight:400;writing-mode:lr-tb;fill:#1a1a1a;fill-opacity:1;fill-rule:nonzero;stroke:none;font-family:Liberation Sans;-inkscape-font-specification:LiberationSans">-inf</tspan></text><path d="M381.6 187.2H360v18h43.2v-18h-21.6z" style="fill:none;stroke:#000;stroke-width:.70749998;stroke-linecap:butt;stroke-linejoin:round;stroke-miterlimit:10;stroke-opacity:1;stroke-dasharray:none"/><text transform="matrix(1 0 0 -1 373.5 192.8)"><tspan x="0 5.6999998 7.9000001 13.4" y="0" style="font-size:10px;font-variant:normal;font-weight:400;writing-mode:lr-tb;fill:#1a1a1a;fill-opacity:1;fill-rule:nonzero;stroke:none;font-family:Liberation Sans;-inkscape-font-specification:LiberationSans">+inf</tspan></text><path d="M424.8 169.2h-21.6v18h43.2v-18h-21.6z" style="fill:none;stroke:#000;stroke-width:.70749998;stroke-linecap:butt;stroke-linejoin:round;stroke-miterlimit:10;stroke-opacity:1;stroke-dasharray:none"/><text transform="matrix(1 0 0 -1 416.7 174.8)"><tspan x="0 5.6999998 7.9000001 13.4" y="0" style="font-size:10px;font-variant:normal;font-weight:400;writing-mode:lr-tb;fill:#1a1a1a;fill-opacity:1;fill-rule:nonzero;stroke:none;font-family:Liberation Sans;-inkscape-font-specification:LiberationSans">+inf</tspan></text><path d="M381.6 151.2H360v18h43.2v-18h-21.6z" style="fill:none;stroke:#000;stroke-width:.70749998;stroke-linecap:butt;stroke-linejoin:round;stroke-miterlimit:10;stroke-opacity:1;stroke-dasharray:none"/><text transform="matrix(1 0 0 -1 373.5 156.8)"><tspan x="0 5.6999998 7.9000001 13.4" y="0" style="font-size:10px;font-variant:normal;font-weight:400;writing-mode:lr-tb;fill:#1a1a1a;fill-opacity:1;fill-rule:nonzero;stroke:none;font-family:Liberation Sans;-inkscape-font-specification:LiberationSans">+inf</tspan></text><path d="M424.8 151.2h-21.6v18h43.2v-18h-21.6z" style="fill:none;stroke:#000;stroke-width:.70749998;stroke-linecap:butt;stroke-linejoin:round;stroke-miterlimit:10;stroke-opacity:1;stroke-dasharray:none"/><text transform="matrix(1 0 0 -1 417.9 156.8)"><tspan x="0 3.3900001 5.4899998 10.99" y="0" style="font-size:10px;font-variant:normal;font-weight:400;writing-mode:lr-tb;fill:#1a1a1a;fill-opacity:1;fill-rule:nonzero;stroke:none;font-family:Liberation Sans;-inkscape-font-specification:LiberationSans">-inf</tspan></text><path d="M381.6 169.2H360v18h43.2v-18h-21.6z" style="fill:none;stroke:#000;stroke-width:.70749998;stroke-linecap:butt;stroke-linejoin:round;stroke-miterlimit:10;stroke-opacity:1;stroke-dasharray:none"/><text transform="matrix(1 0 0 -1 374.7 174.8)"><tspan x="0 3.3900001 5.4899998 10.99" y="0" style="font-size:10px;font-variant:normal;font-weight:400;writing-mode:lr-tb;fill:#1a1a1a;fill-opacity:1;fill-rule:nonzero;stroke:none;font-family:Liberation Sans;-inkscape-font-specification:LiberationSans">-inf</tspan></text><path d="M295.2 151.2h-21.6v18h43.2v-18h-21.6z" style="fill:none;stroke:#000;stroke-width:.70749998;stroke-linecap:butt;stroke-linejoin:round;stroke-miterlimit:10;stroke-opacity:1;stroke-dasharray:none"/><text transform="matrix(1 0 0 -1 289.6 156.8)"><tspan x="0 5.6999998" y="0" style="font-size:10px;font-variant:normal;font-weight:400;writing-mode:lr-tb;fill:#1a1a1a;fill-opacity:1;fill-rule:nonzero;stroke:none;font-family:Liberation Sans;-inkscape-font-specification:LiberationSans">+0</tspan></text><path d="M338.4 151.2h-21.6v18H360v-18h-21.6z" style="fill:none;stroke:#000;stroke-width:.70749998;stroke-linecap:butt;stroke-linejoin:round;stroke-miterlimit:10;stroke-opacity:1;stroke-dasharray:none"/><text transform="matrix(1 0 0 -1 334 156.8)"><tspan x="0 3.3900001" y="0" style="font-size:10px;font-variant:normal;font-weight:400;writing-mode:lr-tb;fill:#1a1a1a;fill-opacity:1;fill-rule:nonzero;stroke:none;font-family:Liberation Sans;-inkscape-font-specification:LiberationSans">-0</tspan></text><path d="M295.2 133.2h-21.6v18h43.2v-18h-21.6z" style="fill:none;stroke:#000;stroke-width:.70749998;stroke-linecap:butt;stroke-linejoin:round;stroke-miterlimit:10;stroke-opacity:1;stroke-dasharray:none"/><text transform="matrix(1 0 0 -1 290.8 138.8)"><tspan x="0 3.3900001" y="0" style="font-size:10px;font-variant:normal;font-weight:400;writing-mode:lr-tb;fill:#1a1a1a;fill-opacity:1;fill-rule:nonzero;stroke:none;font-family:Liberation Sans;-inkscape-font-specification:LiberationSans">-0</tspan></text><path d="M338.4 133.2h-21.6v18H360v-18h-21.6z" style="fill:none;stroke:#000;stroke-width:.70749998;stroke-linecap:butt;stroke-linejoin:round;stroke-miterlimit:10;stroke-opacity:1;stroke-dasharray:none"/><text transform="matrix(1 0 0 -1 332.8 138.8)"><tspan x="0 5.6999998" y="0" style="font-size:10px;font-variant:normal;font-weight:400;writing-mode:lr-tb;fill:#1a1a1a;fill-opacity:1;fill-rule:nonzero;stroke:none;font-family:Liberation Sans;-inkscape-font-specification:LiberationSans">+0</tspan></text><path d="M338.4 115.2h-21.6v18H360v-18h-21.6z" style="fill:none;stroke:#000;stroke-width:.70749998;stroke-linecap:butt;stroke-linejoin:round;stroke-miterlimit:10;stroke-opacity:1;stroke-dasharray:none"/><text transform="matrix(1 0 0 -1 334 120.8)"><tspan x="0 3.3900001" y="0" style="font-size:10px;font-variant:normal;font-weight:400;writing-mode:lr-tb;fill:#1a1a1a;fill-opacity:1;fill-rule:nonzero;stroke:none;font-family:Liberation Sans;-inkscape-font-specification:LiberationSans">-0</tspan></text><path d="M295.2 97.2h-21.6v18h43.2v-18h-21.6z" style="fill:none;stroke:#000;stroke-width:.70749998;stroke-linecap:butt;stroke-linejoin:round;stroke-miterlimit:10;stroke-opacity:1;stroke-dasharray:none"/><text transform="matrix(1 0 0 -1 290.8 102.8)"><tspan x="0 3.3900001" y="0" style="font-size:10px;font-variant:normal;font-weight:400;writing-mode:lr-tb;fill:#1a1a1a;fill-opacity:1;fill-rule:nonzero;stroke:none;font-family:Liberation Sans;-inkscape-font-specification:LiberationSans">-0</tspan></text><path d="M295.2 115.2h-21.6v18h43.2v-18h-21.6z" style="fill:none;stroke:#000;stroke-width:.70749998;stroke-linecap:butt;stroke-linejoin:round;stroke-miterlimit:10;stroke-opacity:1;stroke-dasharray:none"/><text transform="matrix(1 0 0 -1 289.6 120.8)"><tspan x="0 5.6999998" y="0" style="font-size:10px;font-variant:normal;font-weight:400;writing-mode:lr-tb;fill:#1a1a1a;fill-opacity:1;fill-rule:nonzero;stroke:none;font-family:Liberation Sans;-inkscape-font-specification:LiberationSans">+0</tspan></text><path d="M338.4 97.2h-21.6v18H360v-18h-21.6z" style="fill:none;stroke:#000;stroke-width:.70749998;stroke-linecap:butt;stroke-linejoin:round;stroke-miterlimit:10;stroke-opacity:1;stroke-dasharray:none"/><text transform="matrix(1 0 0 -1 332.8 102.8)"><tspan x="0 5.6999998" y="0" style="font-size:10px;font-variant:normal;font-weight:400;writing-mode:lr-tb;fill:#1a1a1a;fill-opacity:1;fill-rule:nonzero;stroke:none;font-family:Liberation Sans;-inkscape-font-specification:LiberationSans">+0</tspan></text><path d="M381.6 133.2H360v18h43.2v-18h-21.6z" style="fill:none;stroke:#000;stroke-width:.70749998;stroke-linecap:butt;stroke-linejoin:round;stroke-miterlimit:10;stroke-opacity:1;stroke-dasharray:none"/><text transform="matrix(1 0 0 -1 374.7 138.8)"><tspan x="0 3.3900001 5.4899998 10.99" y="0" style="font-size:10px;font-variant:normal;font-weight:400;writing-mode:lr-tb;fill:#1a1a1a;fill-opacity:1;fill-rule:nonzero;stroke:none;font-family:Liberation Sans;-inkscape-font-specification:LiberationSans">-inf</tspan></text><path d="M424.8 133.2h-21.6v18h43.2v-18h-21.6z" style="fill:none;stroke:#000;stroke-width:.70749998;stroke-linecap:butt;stroke-linejoin:round;stroke-miterlimit:10;stroke-opacity:1;stroke-dasharray:none"/><text transform="matrix(1 0 0 -1 416.7 138.8)"><tspan x="0 5.6999998 7.9000001 13.4" y="0" style="font-size:10px;font-variant:normal;font-weight:400;writing-mode:lr-tb;fill:#1a1a1a;fill-opacity:1;fill-rule:nonzero;stroke:none;font-family:Liberation Sans;-inkscape-font-specification:LiberationSans">+inf</tspan></text><path d="M72 169.2h93.6M165.6 169.2v36" style="fill:none;stroke:#000;stroke-width:.70749998;stroke-linecap:butt;stroke-linejoin:round;stroke-miterlimit:10;stroke-opacity:1;stroke-dasharray:none"/><text transform="matrix(1 0 0 -1 237.8 138.8)"><tspan x="0 6.5999999 9.9899998 13.29 18.879999" y="0" style="font-size:10px;font-variant:normal;font-weight:400;writing-mode:lr-tb;fill:#1a1a1a;fill-opacity:1;fill-rule:nonzero;stroke:none;font-family:Liberation Sans;-inkscape-font-specification:LiberationSans">Error</tspan></text><path d="M95.4 115.2H72v18h46.8v-18H95.4z" style="fill:none;stroke:#000;stroke-width:.70749998;stroke-linecap:butt;stroke-linejoin:round;stroke-miterlimit:10;stroke-opacity:1;stroke-dasharray:none"/><text transform="matrix(1 0 0 -1 89.7 120.8)"><tspan x="0 5.8000002" y="0" style="font-size:10px;font-variant:normal;font-weight:400;writing-mode:lr-tb;fill:#1a1a1a;fill-opacity:1;fill-rule:nonzero;stroke:none;font-family:Liberation Sans;-inkscape-font-specification:LiberationSans">+0</tspan></text><path d="M142.2 97.2h-23.4v18h46.8v-18h-23.4z" style="fill:none;stroke:#000;stroke-width:.70749998;stroke-linecap:butt;stroke-linejoin:round;stroke-miterlimit:10;stroke-opacity:1;stroke-dasharray:none"/><text transform="matrix(1 0 0 -1 136.5 102.8)"><tspan x="0 5.8000002" y="0" style="font-size:10px;font-variant:normal;font-weight:400;writing-mode:lr-tb;fill:#1a1a1a;fill-opacity:1;fill-rule:nonzero;stroke:none;font-family:Liberation Sans;-inkscape-font-specification:LiberationSans">+0</tspan></text><path d="M192.6 115.2h-27v18h54v-18h-27z" style="fill:none;stroke:#000;stroke-width:.70749998;stroke-linecap:butt;stroke-linejoin:round;stroke-miterlimit:10;stroke-opacity:1;stroke-dasharray:none"/><text transform="matrix(1 0 0 -1 186.9 120.8)"><tspan x="0 5.8000002" y="0" style="font-size:10px;font-variant:normal;font-weight:400;writing-mode:lr-tb;fill:#1a1a1a;fill-opacity:1;fill-rule:nonzero;stroke:none;font-family:Liberation Sans;-inkscape-font-specification:LiberationSans">+0</tspan></text><path d="M246.6 97.2h-27v18h54v-18h-27z" style="fill:none;stroke:#000;stroke-width:.70749998;stroke-linecap:butt;stroke-linejoin:round;stroke-miterlimit:10;stroke-opacity:1;stroke-dasharray:none"/><text transform="matrix(1 0 0 -1 240.9 102.8)"><tspan x="0 5.8000002" y="0" style="font-size:10px;font-variant:normal;font-weight:400;writing-mode:lr-tb;fill:#1a1a1a;fill-opacity:1;fill-rule:nonzero;stroke:none;font-family:Liberation Sans;-inkscape-font-specification:LiberationSans">+0</tspan></text><path d="M95.4 97.2H72v18h46.8v-18H95.4z" style="fill:none;stroke:#000;stroke-width:.70749998;stroke-linecap:butt;stroke-linejoin:round;stroke-miterlimit:10;stroke-opacity:1;stroke-dasharray:none"/><text transform="matrix(1 0 0 -1 90.9 102.8)"><tspan x="0 3.3900001" y="0" style="font-size:10px;font-variant:normal;font-weight:400;writing-mode:lr-tb;fill:#1a1a1a;fill-opacity:1;fill-rule:nonzero;stroke:none;font-family:Liberation Sans;-inkscape-font-specification:LiberationSans">-0</tspan></text><path d="M142.2 115.2h-23.4v18h46.8v-18h-23.4z" style="fill:none;stroke:#000;stroke-width:.70749998;stroke-linecap:butt;stroke-linejoin:round;stroke-miterlimit:10;stroke-opacity:1;stroke-dasharray:none"/><text transform="matrix(1 0 0 -1 137.7 120.8)"><tspan x="0 3.3900001" y="0" style="font-size:10px;font-variant:normal;font-weight:400;writing-mode:lr-tb;fill:#1a1a1a;fill-opacity:1;fill-rule:nonzero;stroke:none;font-family:Liberation Sans;-inkscape-font-specification:LiberationSans">-0</tspan></text><path d="M192.6 97.2h-27v18h54v-18h-27z" style="fill:none;stroke:#000;stroke-width:.70749998;stroke-linecap:butt;stroke-linejoin:round;stroke-miterlimit:10;stroke-opacity:1;stroke-dasharray:none"/><text transform="matrix(1 0 0 -1 188.1 102.8)"><tspan x="0 3.3900001" y="0" style="font-size:10px;font-variant:normal;font-weight:400;writing-mode:lr-tb;fill:#1a1a1a;fill-opacity:1;fill-rule:nonzero;stroke:none;font-family:Liberation Sans;-inkscape-font-specification:LiberationSans">-0</tspan></text><path d="M246.6 115.2h-27v18h54v-18h-27z" style="fill:none;stroke:#000;stroke-width:.70749998;stroke-linecap:butt;stroke-linejoin:round;stroke-miterlimit:10;stroke-opacity:1;stroke-dasharray:none"/><text transform="matrix(1 0 0 -1 242.1 120.8)"><tspan x="0 3.3900001" y="0" style="font-size:10px;font-variant:normal;font-weight:400;writing-mode:lr-tb;fill:#1a1a1a;fill-opacity:1;fill-rule:nonzero;stroke:none;font-family:Liberation Sans;-inkscape-font-specification:LiberationSans">-0</tspan></text><path d="M95.4 79.2H72v18h46.8v-18H95.4z" style="fill:none;stroke:#000;stroke-width:.70749998;stroke-linecap:butt;stroke-linejoin:round;stroke-miterlimit:10;stroke-opacity:1;stroke-dasharray:none"/><text transform="matrix(1 0 0 -1 87.3 84.8)"><tspan x="0 5.6999998 7.9000001 13.4" y="0" style="font-size:10px;font-variant:normal;font-weight:400;writing-mode:lr-tb;fill:#1a1a1a;fill-opacity:1;fill-rule:nonzero;stroke:none;font-family:Liberation Sans;-inkscape-font-specification:LiberationSans">+inf</tspan></text><path d="M95.4 61.2H72v18h46.8v-18H95.4z" style="fill:none;stroke:#000;stroke-width:.70749998;stroke-linecap:butt;stroke-linejoin:round;stroke-miterlimit:10;stroke-opacity:1;stroke-dasharray:none"/><text transform="matrix(1 0 0 -1 88.5 66.8)"><tspan x="0 3.3 5.5 11" y="0" style="font-size:10px;font-variant:normal;font-weight:400;writing-mode:lr-tb;fill:#1a1a1a;fill-opacity:1;fill-rule:nonzero;stroke:none;font-family:Liberation Sans;-inkscape-font-specification:LiberationSans">-inf</tspan></text><path d="M142.2 79.2h-23.4v18h46.8v-18h-23.4z" style="fill:none;stroke:#000;stroke-width:.70749998;stroke-linecap:butt;stroke-linejoin:round;stroke-miterlimit:10;stroke-opacity:1;stroke-dasharray:none"/><text transform="matrix(1 0 0 -1 135.3 84.8)"><tspan x="0 3.3 5.5 11" y="0" style="font-size:10px;font-variant:normal;font-weight:400;writing-mode:lr-tb;fill:#1a1a1a;fill-opacity:1;fill-rule:nonzero;stroke:none;font-family:Liberation Sans;-inkscape-font-specification:LiberationSans">-inf</tspan></text><path d="M142.2 61.2h-23.4v18h46.8v-18h-23.4z" style="fill:none;stroke:#000;stroke-width:.70749998;stroke-linecap:butt;stroke-linejoin:round;stroke-miterlimit:10;stroke-opacity:1;stroke-dasharray:none"/><text transform="matrix(1 0 0 -1 134.1 66.8)"><tspan x="0 5.6999998 7.9000001 13.4" y="0" style="font-size:10px;font-variant:normal;font-weight:400;writing-mode:lr-tb;fill:#1a1a1a;fill-opacity:1;fill-rule:nonzero;stroke:none;font-family:Liberation Sans;-inkscape-font-specification:LiberationSans">+inf</tspan></text><path d="M192.6 79.2h-27v18h54v-18h-27z" style="fill:none;stroke:#000;stroke-width:.70749998;stroke-linecap:butt;stroke-linejoin:round;stroke-miterlimit:10;stroke-opacity:1;stroke-dasharray:none"/><text transform="matrix(1 0 0 -1 184.5 84.8)"><tspan x="0 5.6999998 7.9000001 13.4" y="0" style="font-size:10px;font-variant:normal;font-weight:400;writing-mode:lr-tb;fill:#1a1a1a;fill-opacity:1;fill-rule:nonzero;stroke:none;font-family:Liberation Sans;-inkscape-font-specification:LiberationSans">+inf</tspan></text><path d="M246.6 61.2h-27v18h54v-18h-27z" style="fill:none;stroke:#000;stroke-width:.70749998;stroke-linecap:butt;stroke-linejoin:round;stroke-miterlimit:10;stroke-opacity:1;stroke-dasharray:none"/><text transform="matrix(1 0 0 -1 238.5 66.8)"><tspan x="0 5.6999998 7.9000001 13.4" y="0" style="font-size:10px;font-variant:normal;font-weight:400;writing-mode:lr-tb;fill:#1a1a1a;fill-opacity:1;fill-rule:nonzero;stroke:none;font-family:Liberation Sans;-inkscape-font-specification:LiberationSans">+inf</tspan></text><path d="M192.6 61.2h-27v18h54v-18h-27z" style="fill:none;stroke:#000;stroke-width:.70749998;stroke-linecap:butt;stroke-linejoin:round;stroke-miterlimit:10;stroke-opacity:1;stroke-dasharray:none"/><text transform="matrix(1 0 0 -1 185.7 66.8)"><tspan x="0 3.3 5.5 11" y="0" style="font-size:10px;font-variant:normal;font-weight:400;writing-mode:lr-tb;fill:#1a1a1a;fill-opacity:1;fill-rule:nonzero;stroke:none;font-family:Liberation Sans;-inkscape-font-specification:LiberationSans">-inf</tspan></text><path d="M246.6 79.2h-27v18h54v-18h-27z" style="fill:none;stroke:#000;stroke-width:.70749998;stroke-linecap:butt;stroke-linejoin:round;stroke-miterlimit:10;stroke-opacity:1;stroke-dasharray:none"/><text transform="matrix(1 0 0 -1 239.7 84.8)"><tspan x="0 3.3 5.5 11" y="0" style="font-size:10px;font-variant:normal;font-weight:400;writing-mode:lr-tb;fill:#1a1a1a;fill-opacity:1;fill-rule:nonzero;stroke:none;font-family:Liberation Sans;-inkscape-font-specification:LiberationSans">-inf</tspan></text></g></svg>