<svg xmlns="http://www.w3.org/2000/svg" width="675" height="135" xml:space="preserve"><defs><clipPath id="a"><path d="M0 0h540v108H0V0z"/></clipPath></defs><g clip-path="url(#a)" transform="matrix(1.25 0 0 -1.25 0 135)"><path d="M0 108h540V0H0v108z" style="fill:#fff;fill-opacity:0;fill-rule:evenodd;stroke:none"/><path d="M309.6 28.8h-32.4V54H342V28.8h-32.4z" style="fill:#b3b3b3;fill-opacity:1;fill-rule:evenodd;stroke:none"/><path d="M309.6 28.8h-32.4V54H342V28.8h-32.4z" style="fill:none;stroke:#000;stroke-width:.70749998;stroke-linecap:butt;stroke-linejoin:round;stroke-miterlimit:10;stroke-opacity:1;stroke-dasharray:none"/><text transform="matrix(1 0 0 -1 295.3 43.6)"><tspan x="0 2.7 8.1999998 13.29 18.790001 20.99 23.09" y="0" style="font-size:10px;font-variant:normal;font-weight:400;writing-mode:lr-tb;fill:#1a1a1a;fill-opacity:1;fill-rule:nonzero;stroke:none;font-family:Liberation Sans;-inkscape-font-specification:LiberationSans">Invalid</tspan></text><text transform="matrix(1 0 0 -1 295.3 32.4)"><tspan x="0 3.3 11.6 18.200001" y="0" style="font-size:10px;font-variant:normal;font-weight:400;writing-mode:lr-tb;fill:#1a1a1a;fill-opacity:1;fill-rule:nonzero;stroke:none;font-family:Liberation Sans;-inkscape-font-specification:LiberationSans">-MAX</tspan></text><path d="M244.8 28.8h-32.4V54h64.8V28.8h-32.4z" style="fill:#b3b3b3;fill-opacity:1;fill-rule:evenodd;stroke:none"/><path d="M244.8 28.8h-32.4V54h64.8V28.8h-32.4z" style="fill:none;stroke:#000;stroke-width:.70749998;stroke-linecap:butt;stroke-linejoin:round;stroke-miterlimit:10;stroke-opacity:1;stroke-dasharray:none"/><text transform="matrix(1 0 0 -1 230.5 43.6)"><tspan x="0 2.7 8.1999998 13.29 18.790001 20.99 23.09" y="0" style="font-size:10px;font-variant:normal;font-weight:400;writing-mode:lr-tb;fill:#1a1a1a;fill-opacity:1;fill-rule:nonzero;stroke:none;font-family:Liberation Sans;-inkscape-font-specification:LiberationSans">Invalid</tspan></text><text transform="matrix(1 0 0 -1 230.5 32.4)"><tspan x="0 5.6999998 14 20.6" y="0" style="font-size:10px;font-variant:normal;font-weight:400;writing-mode:lr-tb;fill:#1a1a1a;fill-opacity:1;fill-rule:nonzero;stroke:none;font-family:Liberation Sans;-inkscape-font-specification:LiberationSans">+MAX</tspan></text><path d="M95.4 28.8H72v23.7h46.8V28.8H95.4z" style="fill:none;stroke:#000;stroke-width:.70749998;stroke-linecap:butt;stroke-linejoin:round;stroke-miterlimit:10;stroke-opacity:1;stroke-dasharray:none"/><text transform="matrix(1 0 0 -1 79.4 37.2)"><tspan x="0 6.0999999 13.3" y="0" style="font-size:10px;font-variant:normal;font-weight:400;writing-mode:lr-tb;fill:#1a1a1a;fill-opacity:1;fill-rule:nonzero;stroke:none;font-family:Liberation Sans;-inkscape-font-specification:LiberationSans">TRC</tspan></text><path d="M43.2 28.8H14.4v23.7H72V28.8H43.2z" style="fill:none;stroke:#000;stroke-width:.70749998;stroke-linecap:butt;stroke-linejoin:round;stroke-miterlimit:10;stroke-opacity:1;stroke-dasharray:none"/><text transform="matrix(1 0 0 -1 22.4 37.2)"><tspan x="0 6.0999999 12.2 19.4 26.6 29.389999 32.779999 38.279999" y="0" style="font-size:10px;font-variant:normal;font-weight:400;writing-mode:lr-tb;fill:#1a1a1a;fill-opacity:1;fill-rule:nonzero;stroke:none;font-family:Liberation Sans;-inkscape-font-specification:LiberationSans">FTRC (n)</tspan></text><path d="M95.4 52.5H72v33.9h46.8V52.5H95.4z" style="fill:none;stroke:#000;stroke-width:.70749998;stroke-linecap:butt;stroke-linejoin:round;stroke-miterlimit:10;stroke-opacity:1;stroke-dasharray:none"/><text transform="matrix(1 0 0 -1 80.1 66)"><tspan x="0 7.1999998 14.99 22.190001" y="0" style="font-size:10px;font-variant:normal;font-weight:400;writing-mode:lr-tb;fill:#1a1a1a;fill-opacity:1;fill-rule:nonzero;stroke:none;font-family:Liberation Sans;-inkscape-font-specification:LiberationSans">NORM</tspan></text><path d="M142.2 52.5h-23.4v33.9h46.8V52.5h-23.4z" style="fill:none;stroke:#000;stroke-width:.70749998;stroke-linecap:butt;stroke-linejoin:round;stroke-miterlimit:10;stroke-opacity:1;stroke-dasharray:none"/><text transform="matrix(1 0 0 -1 136.5 66)"><tspan x="0 5.8000002" y="0" style="font-size:10px;font-variant:normal;font-weight:400;writing-mode:lr-tb;fill:#1a1a1a;fill-opacity:1;fill-rule:nonzero;stroke:none;font-family:Liberation Sans;-inkscape-font-specification:LiberationSans">+0</tspan></text><path d="M365.4 54H342v32.4h46.8V54h-23.4z" style="fill:none;stroke:#000;stroke-width:.70749998;stroke-linecap:butt;stroke-linejoin:round;stroke-miterlimit:10;stroke-opacity:1;stroke-dasharray:none"/><text transform="matrix(1 0 0 -1 357.3 66.8)"><tspan x="0 5.6999998 7.9000001 13.4" y="0" style="font-size:10px;font-variant:normal;font-weight:400;writing-mode:lr-tb;fill:#1a1a1a;fill-opacity:1;fill-rule:nonzero;stroke:none;font-family:Liberation Sans;-inkscape-font-specification:LiberationSans">+inf</tspan></text><path d="M412.2 54h-23.4v32.4h46.8V54h-23.4z" style="fill:none;stroke:#000;stroke-width:.70749998;stroke-linecap:butt;stroke-linejoin:round;stroke-miterlimit:10;stroke-opacity:1;stroke-dasharray:none"/><text transform="matrix(1 0 0 -1 405.3 66.8)"><tspan x="0 3.3 5.5 11" y="0" style="font-size:10px;font-variant:normal;font-weight:400;writing-mode:lr-tb;fill:#1a1a1a;fill-opacity:1;fill-rule:nonzero;stroke:none;font-family:Liberation Sans;-inkscape-font-specification:LiberationSans">-inf</tspan></text><path d="M300.6 86.4H72v18h457.2v-18H300.6z" style="fill:none;stroke:#000;stroke-width:.70749998;stroke-linecap:butt;stroke-linejoin:round;stroke-miterlimit:10;stroke-opacity:1;stroke-dasharray:none"/><text transform="matrix(1 0 0 -1 297.8 92)"><tspan x="0" y="0" style="font-size:10px;font-variant:normal;font-weight:400;writing-mode:lr-tb;fill:#1a1a1a;fill-opacity:1;fill-rule:nonzero;stroke:none;font-family:Liberation Sans;-inkscape-font-specification:LiberationSans">n</tspan></text><path d="M459 54h-23.4v32.4h46.8V54H459z" style="fill:none;stroke:#000;stroke-width:.70749998;stroke-linecap:butt;stroke-linejoin:round;stroke-miterlimit:10;stroke-opacity:1;stroke-dasharray:none"/><text transform="matrix(1 0 0 -1 446.3 66.8)"><tspan x="0 5.5 12.7 18.200001" y="0" style="font-size:10px;font-variant:normal;font-weight:400;writing-mode:lr-tb;fill:#1a1a1a;fill-opacity:1;fill-rule:nonzero;stroke:none;font-family:Liberation Sans;-inkscape-font-specification:LiberationSans">qNaN</tspan></text><path d="M505.8 54h-23.4v32.4h46.8V54h-23.4z" style="fill:none;stroke:#000;stroke-width:.70749998;stroke-linecap:butt;stroke-linejoin:round;stroke-miterlimit:10;stroke-opacity:1;stroke-dasharray:none"/><text transform="matrix(1 0 0 -1 493.3 66.8)"><tspan x="0 5 12.2 17.790001" y="0" style="font-size:10px;font-variant:normal;font-weight:400;writing-mode:lr-tb;fill:#1a1a1a;fill-opacity:1;fill-rule:nonzero;stroke:none;font-family:Liberation Sans;-inkscape-font-specification:LiberationSans">sNaN</tspan></text><text transform="matrix(1 0 0 -1 21.5 8.1)"><tspan x="0 7.8979998 14.003 17.094 23.287001" y="0" style="font-size:11px;font-variant:normal;font-weight:400;writing-mode:lr-tb;fill:#1a1a1a;fill-opacity:1;fill-rule:nonzero;stroke:none;font-family:Liberation Sans;-inkscape-font-specification:LiberationSans">Note:</tspan></text><text transform="matrix(1 0 0 -1 57.5 8.1)"><tspan x="0 10.384 16.489 22.681999 28.787001 31.878 39.776001 47.762001 50.853001 57.342999 60.433998 66.539001 69.629997 72.721001 75.911003 82.015999 88.121002 91.211998 96.711998 102.817 105.303 111.408 117.513 120.604 126.709 129.899 132.99001 139.095 142.186 148.291 154.48399 160.589 166.694 170.379 179.66299 185.76801 188.166 190.564 196.064 202.16901 208.274 211.36501 217.558 223.66299 232.84801 238.953 245.146 248.83099 251.922 254.32001 259.82001 263.01001 266.10101 269.78601 275.89099 281.996 285.186 291.29099 297.396 300.487 306.59201 312.09201 315.28201 321.38699" y="0" style="font-size:11px;font-variant:normal;font-weight:400;writing-mode:lr-tb;fill:#1a1a1a;fill-opacity:1;fill-rule:nonzero;stroke:none;font-family:Liberation Sans;-inkscape-font-specification:LiberationSans">When DN = 1, the value of a denormalized number is treated as 0.</tspan></text><path d="M244.8 52.5h-32.4v33.9h64.8V52.5h-32.4z" style="fill:none;stroke:#000;stroke-width:.70749998;stroke-linecap:butt;stroke-linejoin:round;stroke-miterlimit:10;stroke-opacity:1;stroke-dasharray:none"/><text transform="matrix(1 0 0 -1 227.4 71.6)"><tspan x="0 6.5999999 12.1 17.1 19.299999 22.09 24.190001 29.280001" y="0" style="font-size:10px;font-variant:normal;font-weight:400;writing-mode:lr-tb;fill:#1a1a1a;fill-opacity:1;fill-rule:nonzero;stroke:none;font-family:Liberation Sans;-inkscape-font-specification:LiberationSans">Positive</tspan></text><text transform="matrix(1 0 0 -1 218.3 60.4)"><tspan x="0 5.5 11 13.79 16.49 21.99 24.780001 27.57 30.870001 36.369999 41.959999 47.459999" y="0" style="font-size:10px;font-variant:normal;font-weight:400;writing-mode:lr-tb;fill:#1a1a1a;fill-opacity:1;fill-rule:nonzero;stroke:none;font-family:Liberation Sans;-inkscape-font-specification:LiberationSans">out of range</tspan></text><path d="M72 54V28.8" style="fill:none;stroke:#000;stroke-width:2.15078998;stroke-linecap:butt;stroke-linejoin:round;stroke-miterlimit:10;stroke-opacity:1;stroke-dasharray:none"/><path d="M189 52.5h-23.4v33.9h46.8V52.5H189z" style="fill:none;stroke:#000;stroke-width:.70749998;stroke-linecap:butt;stroke-linejoin:round;stroke-miterlimit:10;stroke-opacity:1;stroke-dasharray:none"/><text transform="matrix(1 0 0 -1 184.5 66)"><tspan x="0 3.3900001" y="0" style="font-size:10px;font-variant:normal;font-weight:400;writing-mode:lr-tb;fill:#1a1a1a;fill-opacity:1;fill-rule:nonzero;stroke:none;font-family:Liberation Sans;-inkscape-font-specification:LiberationSans">-0</tspan></text><path d="M142.2 28.8h-23.4v23.7h46.8V28.8h-23.4z" style="fill:none;stroke:#000;stroke-width:.70749998;stroke-linecap:butt;stroke-linejoin:round;stroke-miterlimit:10;stroke-opacity:1;stroke-dasharray:none"/><text transform="matrix(1 0 0 -1 139.4 37.2)"><tspan x="0" y="0" style="font-size:10px;font-variant:normal;font-weight:400;writing-mode:lr-tb;fill:#1a1a1a;fill-opacity:1;fill-rule:nonzero;stroke:none;font-family:Liberation Sans;-inkscape-font-specification:LiberationSans">0</tspan></text><path d="M189 28.8h-23.4v23.7h46.8V28.8H189z" style="fill:none;stroke:#000;stroke-width:.70749998;stroke-linecap:butt;stroke-linejoin:round;stroke-miterlimit:10;stroke-opacity:1;stroke-dasharray:none"/><text transform="matrix(1 0 0 -1 186.2 37.2)"><tspan x="0" y="0" style="font-size:10px;font-variant:normal;font-weight:400;writing-mode:lr-tb;fill:#1a1a1a;fill-opacity:1;fill-rule:nonzero;stroke:none;font-family:Liberation Sans;-inkscape-font-specification:LiberationSans">0</tspan></text><path d="M309.6 52.5h-32.4v33.9H342V52.5h-32.4z" style="fill:none;stroke:#000;stroke-width:.70749998;stroke-linecap:butt;stroke-linejoin:round;stroke-miterlimit:10;stroke-opacity:1;stroke-dasharray:none"/><text transform="matrix(1 0 0 -1 290 71.6)"><tspan x="0 7.1999998 12.7 18.200001 23.700001 26.49 28.690001 33.689999" y="0" style="font-size:10px;font-variant:normal;font-weight:400;writing-mode:lr-tb;fill:#1a1a1a;fill-opacity:1;fill-rule:nonzero;stroke:none;font-family:Liberation Sans;-inkscape-font-specification:LiberationSans">Negative</tspan></text><text transform="matrix(1 0 0 -1 283.1 60.4)"><tspan x="0 5.5 11 13.79 16.49 21.99 24.780001 27.57 30.870001 36.369999 41.959999 47.459999" y="0" style="font-size:10px;font-variant:normal;font-weight:400;writing-mode:lr-tb;fill:#1a1a1a;fill-opacity:1;fill-rule:nonzero;stroke:none;font-family:Liberation Sans;-inkscape-font-specification:LiberationSans">out of range</tspan></text><path d="M365.4 28.8H342V54h46.8V28.8h-23.4z" style="fill:#b3b3b3;fill-opacity:1;fill-rule:evenodd;stroke:none"/><path d="M365.4 28.8H342V54h46.8V28.8h-23.4z" style="fill:none;stroke:#000;stroke-width:.70749998;stroke-linecap:butt;stroke-linejoin:round;stroke-miterlimit:10;stroke-opacity:1;stroke-dasharray:none"/><text transform="matrix(1 0 0 -1 351 43.6)"><tspan x="0 2.79 8.29 13.29 18.879999 20.98 23.18" y="0" style="font-size:10px;font-variant:normal;font-weight:400;writing-mode:lr-tb;fill:#1a1a1a;fill-opacity:1;fill-rule:nonzero;stroke:none;font-family:Liberation Sans;-inkscape-font-specification:LiberationSans">Invalid</tspan></text><text transform="matrix(1 0 0 -1 351 32.4)"><tspan x="0 5.8000002 14 20.690001" y="0" style="font-size:10px;font-variant:normal;font-weight:400;writing-mode:lr-tb;fill:#1a1a1a;fill-opacity:1;fill-rule:nonzero;stroke:none;font-family:Liberation Sans;-inkscape-font-specification:LiberationSans">+MAX</tspan></text><path d="M412.2 28.8h-23.4V54h46.8V28.8h-23.4z" style="fill:#b3b3b3;fill-opacity:1;fill-rule:evenodd;stroke:none"/><path d="M412.2 28.8h-23.4V54h46.8V28.8h-23.4z" style="fill:none;stroke:#000;stroke-width:.70749998;stroke-linecap:butt;stroke-linejoin:round;stroke-miterlimit:10;stroke-opacity:1;stroke-dasharray:none"/><text transform="matrix(1 0 0 -1 397.8 43.6)"><tspan x="0 2.79 8.29 13.29 18.879999 20.98 23.18" y="0" style="font-size:10px;font-variant:normal;font-weight:400;writing-mode:lr-tb;fill:#1a1a1a;fill-opacity:1;fill-rule:nonzero;stroke:none;font-family:Liberation Sans;-inkscape-font-specification:LiberationSans">Invalid</tspan></text><text transform="matrix(1 0 0 -1 397.8 32.4)"><tspan x="0 3.3900001 11.69 18.190001" y="0" style="font-size:10px;font-variant:normal;font-weight:400;writing-mode:lr-tb;fill:#1a1a1a;fill-opacity:1;fill-rule:nonzero;stroke:none;font-family:Liberation Sans;-inkscape-font-specification:LiberationSans">-MAX</tspan></text><path d="M459 28.8h-23.4V54h46.8V28.8H459z" style="fill:#b3b3b3;fill-opacity:1;fill-rule:evenodd;stroke:none"/><path d="M459 28.8h-23.4V54h46.8V28.8H459z" style="fill:none;stroke:#000;stroke-width:.70749998;stroke-linecap:butt;stroke-linejoin:round;stroke-miterlimit:10;stroke-opacity:1;stroke-dasharray:none"/><text transform="matrix(1 0 0 -1 444.6 43.6)"><tspan x="0 2.79 8.29 13.29 18.879999 20.98 23.18" y="0" style="font-size:10px;font-variant:normal;font-weight:400;writing-mode:lr-tb;fill:#1a1a1a;fill-opacity:1;fill-rule:nonzero;stroke:none;font-family:Liberation Sans;-inkscape-font-specification:LiberationSans">Invalid</tspan></text><text transform="matrix(1 0 0 -1 444.6 32.4)"><tspan x="0 3.3900001 11.69 18.190001" y="0" style="font-size:10px;font-variant:normal;font-weight:400;writing-mode:lr-tb;fill:#1a1a1a;fill-opacity:1;fill-rule:nonzero;stroke:none;font-family:Liberation Sans;-inkscape-font-specification:LiberationSans">-MAX</tspan></text><path d="M505.8 28.8h-23.4V54h46.8V28.8h-23.4z" style="fill:#b3b3b3;fill-opacity:1;fill-rule:evenodd;stroke:none"/><path d="M505.8 28.8h-23.4V54h46.8V28.8h-23.4z" style="fill:none;stroke:#000;stroke-width:.70749998;stroke-linecap:butt;stroke-linejoin:round;stroke-miterlimit:10;stroke-opacity:1;stroke-dasharray:none"/><text transform="matrix(1 0 0 -1 491.4 43.6)"><tspan x="0 2.79 8.29 13.29 18.879999 20.98 23.18" y="0" style="font-size:10px;font-variant:normal;font-weight:400;writing-mode:lr-tb;fill:#1a1a1a;fill-opacity:1;fill-rule:nonzero;stroke:none;font-family:Liberation Sans;-inkscape-font-specification:LiberationSans">Invalid</tspan></text><text transform="matrix(1 0 0 -1 491.4 32.4)"><tspan x="0 3.3900001 11.69 18.190001" y="0" style="font-size:10px;font-variant:normal;font-weight:400;writing-mode:lr-tb;fill:#1a1a1a;fill-opacity:1;fill-rule:nonzero;stroke:none;font-family:Liberation Sans;-inkscape-font-specification:LiberationSans">-MAX</tspan></text><path d="M72 54h457.2" style="fill:none;stroke:#000;stroke-width:2.15078998;stroke-linecap:butt;stroke-linejoin:round;stroke-miterlimit:10;stroke-opacity:1;stroke-dasharray:none"/></g></svg>