<svg xmlns="http://www.w3.org/2000/svg" width="405" height="225" xml:space="preserve"><defs><clipPath id="a"><path d="M0 0h324v180H0V0z"/></clipPath></defs><g clip-path="url(#a)" transform="matrix(1.25 0 0 -1.25 0 225)"><path d="M0 180h324V0H0v180z" style="fill:#fff;fill-opacity:0;fill-rule:evenodd;stroke:none"/><path d="m219.1 126.2-53.5-39.1" style="fill:none;stroke:#000;stroke-width:.69999999;stroke-linecap:butt;stroke-linejoin:miter;stroke-miterlimit:10;stroke-opacity:1;stroke-dasharray:none"/><path d="m154.8 79.2 14.1 4.5-5.5 7.5-8.6-12z" style="fill:#000;fill-opacity:1;fill-rule:evenodd;stroke:none"/><path d="M67.8 47h-15v32.2h30V47h-15z" style="fill:#fff;fill-opacity:1;fill-rule:evenodd;stroke:none"/><path d="M67.8 47h-15v32.2h30V47h-15z" style="fill:none;stroke:#000;stroke-width:.70749998;stroke-linecap:butt;stroke-linejoin:round;stroke-miterlimit:10;stroke-opacity:1;stroke-dasharray:none"/><text transform="matrix(1 0 0 -1 141.1 161)"><tspan x="0 6.1929998" y="0" style="font-size:11px;font-variant:normal;font-weight:400;writing-mode:lr-tb;fill:#1a1a1a;fill-opacity:1;fill-rule:nonzero;stroke:none;font-family:Liberation Sans;-inkscape-font-specification:LiberationSans">19</tspan></text><text transform="matrix(1 0 0 -1 294.2 161)"><tspan x="0" y="0" style="font-size:11px;font-variant:normal;font-weight:400;writing-mode:lr-tb;fill:#1a1a1a;fill-opacity:1;fill-rule:nonzero;stroke:none;font-family:Liberation Sans;-inkscape-font-specification:LiberationSans">0</tspan></text><text transform="matrix(1 0 0 -1 297 81.6)"><tspan x="0" y="0" style="font-size:11px;font-variant:normal;font-weight:400;writing-mode:lr-tb;fill:#1a1a1a;fill-opacity:1;fill-rule:nonzero;stroke:none;font-family:Liberation Sans;-inkscape-font-specification:LiberationSans">0</tspan></text><text transform="matrix(1 0 0 -1 53.3 81.6)"><tspan x="0 6.105" y="0" style="font-size:11px;font-variant:normal;font-weight:400;writing-mode:lr-tb;fill:#1a1a1a;fill-opacity:1;fill-rule:nonzero;stroke:none;font-family:Liberation Sans;-inkscape-font-specification:LiberationSans">31</tspan></text><path d="M222.7 126.4h-79.2v32.4h158.4v-32.4h-79.2z" style="fill:#fff;fill-opacity:1;fill-rule:evenodd;stroke:none"/><path d="M222.7 126.4h-79.2v32.4h158.4v-32.4h-79.2z" style="fill:none;stroke:#000;stroke-width:.70749998;stroke-linecap:butt;stroke-linejoin:round;stroke-miterlimit:10;stroke-opacity:1;stroke-dasharray:none"/><text transform="matrix(1 0 0 -1 206.4 138.8)"><tspan x="0 6.105 12.298 15.389 21.493999 23.892 26.983" y="0" style="font-size:11px;font-variant:normal;font-weight:400;writing-mode:lr-tb;fill:#1a1a1a;fill-opacity:1;fill-rule:nonzero;stroke:none;font-family:Liberation Sans;-inkscape-font-specification:LiberationSans">20 bits</tspan></text><text transform="matrix(1 0 0 -1 13.8 141.5)"><tspan x="0 2.398 11.682" y="0" style="font-size:11px;font-variant:normal;font-weight:400;writing-mode:lr-tb;fill:#1a1a1a;fill-opacity:1;fill-rule:nonzero;stroke:none;font-family:Liberation Sans;-inkscape-font-specification:LiberationSans">imm</tspan></text><text transform="matrix(1 0 0 -1 16.4 59)"><tspan x="0 7.8979998" y="0" style="font-size:11px;font-variant:normal;font-weight:400;writing-mode:lr-tb;fill:#1a1a1a;fill-opacity:1;fill-rule:nonzero;stroke:none;font-family:Liberation Sans;-inkscape-font-specification:LiberationSans">Rn</tspan></text><text transform="matrix(1 0 0 -1 82.7 81.7)"><tspan x="0 6.105" y="0" style="font-size:11px;font-variant:normal;font-weight:400;writing-mode:lr-tb;fill:#1a1a1a;fill-opacity:1;fill-rule:nonzero;stroke:none;font-family:Liberation Sans;-inkscape-font-specification:LiberationSans">27</tspan></text><text transform="matrix(1 0 0 -1 240.3 81.6)"><tspan x="0" y="0" style="font-size:11px;font-variant:normal;font-weight:400;writing-mode:lr-tb;fill:#1a1a1a;fill-opacity:1;fill-rule:nonzero;stroke:none;font-family:Liberation Sans;-inkscape-font-specification:LiberationSans">8</tspan></text><path d="M271.8 46.8h-30.6v32.4h61.2V46.8h-30.6z" style="fill:#fff;fill-opacity:1;fill-rule:evenodd;stroke:none"/><path d="M271.8 46.8h-30.6v32.4h61.2V46.8h-30.6z" style="fill:none;stroke:#000;stroke-width:.70749998;stroke-linecap:butt;stroke-linejoin:round;stroke-miterlimit:10;stroke-opacity:1;stroke-dasharray:none"/><text transform="matrix(1 0 0 -1 247.3 59.2)"><tspan x="0 6.105 12.21 18.403 24.507999 30.613001 36.717999 42.823002" y="0" style="font-size:11px;font-variant:normal;font-weight:400;writing-mode:lr-tb;fill:#1a1a1a;fill-opacity:1;fill-rule:nonzero;stroke:none;font-family:Liberation Sans;-inkscape-font-specification:LiberationSans">00000000</tspan></text><path d="M162 46.8H82.8v32.4h158.3V46.8H162z" style="fill:#fff;fill-opacity:1;fill-rule:evenodd;stroke:none"/><path d="M162 46.8H82.8v32.4h158.3V46.8H162z" style="fill:none;stroke:#000;stroke-width:.70749998;stroke-linecap:butt;stroke-linejoin:round;stroke-miterlimit:10;stroke-opacity:1;stroke-dasharray:none"/><text transform="matrix(1 0 0 -1 145.7 59.2)"><tspan x="0 6.105 12.21 15.4 21.504999 23.903 26.993999" y="0" style="font-size:11px;font-variant:normal;font-weight:400;writing-mode:lr-tb;fill:#1a1a1a;fill-opacity:1;fill-rule:nonzero;stroke:none;font-family:Liberation Sans;-inkscape-font-specification:LiberationSans">20 bits</tspan></text><text transform="matrix(1 0 0 -1 33.8 16.1)"><tspan x="0 7.3039999 9.7019997 15.807 21.912001 25.003 31.195999 36.695999 39.786999 45.891998 51.997002 57.584999 59.983002 66.087997" y="0" style="font-size:11px;font-variant:normal;font-weight:400;writing-mode:lr-tb;fill:#1a1a1a;fill-opacity:1;fill-rule:nonzero;stroke:none;font-family:Liberation Sans;-inkscape-font-specification:LiberationSans">Sign extension</tspan></text><path d="M68.4 28.8v8.7" style="fill:none;stroke:#000;stroke-width:.69999999;stroke-linecap:butt;stroke-linejoin:miter;stroke-miterlimit:10;stroke-opacity:1;stroke-dasharray:none"/><path d="M68.4 46.8 65.2 37h6.5l-3.3 9.8z" style="fill:#000;fill-opacity:1;fill-rule:evenodd;stroke:none"/></g></svg>