<svg xmlns="http://www.w3.org/2000/svg" width="450" height="135" xml:space="preserve"><defs><clipPath id="a"><path d="M0 0h360v108H0V0z"/></clipPath></defs><g clip-path="url(#a)" transform="matrix(1.25 0 0 -1.25 0 135)"><path d="M0 108h360V0H0v108z" style="fill:#fff;fill-opacity:0;fill-rule:evenodd;stroke:none"/><path d="M136.8 61.2h-19.5" style="fill:none;stroke:#000;stroke-width:.69999999;stroke-linecap:butt;stroke-linejoin:miter;stroke-miterlimit:10;stroke-opacity:1;stroke-dasharray:none"/><path d="m108 61.2 9.8-3.3v6.5l-9.8-3.2z" style="fill:#000;fill-opacity:1;fill-rule:evenodd;stroke:none"/><text transform="matrix(1 0 0 -1 125.7 79.6)"><tspan x="0 9.1850004 16.489" y="0" style="font-size:11px;font-variant:normal;font-weight:400;writing-mode:lr-tb;fill:#1a1a1a;fill-opacity:1;fill-rule:nonzero;stroke:none;font-family:Liberation Sans;-inkscape-font-specification:LiberationSans">MSB</tspan></text><text transform="matrix(1 0 0 -1 294.9 79.6)"><tspan x="0 6.105 13.409" y="0" style="font-size:11px;font-variant:normal;font-weight:400;writing-mode:lr-tb;fill:#1a1a1a;fill-opacity:1;fill-rule:nonzero;stroke:none;font-family:Liberation Sans;-inkscape-font-specification:LiberationSans">LSB</tspan></text><path d="M221.2 42.7h-84.7v32.4h169.2V42.7h-84.5z" style="fill:#fff;fill-opacity:1;fill-rule:evenodd;stroke:none"/><path d="M221.2 42.7h-84.7v32.4h169.2V42.7h-84.5z" style="fill:none;stroke:#000;stroke-width:.70749998;stroke-linecap:butt;stroke-linejoin:round;stroke-miterlimit:10;stroke-opacity:1;stroke-dasharray:none"/><text transform="matrix(1 0 0 -1 214.1 55)"><tspan x="0 7.8979998" y="0" style="font-size:11px;font-variant:normal;font-weight:400;writing-mode:lr-tb;fill:#1a1a1a;fill-opacity:1;fill-rule:nonzero;stroke:none;font-family:Liberation Sans;-inkscape-font-specification:LiberationSans">Rn</tspan></text><text transform="matrix(1 0 0 -1 11 55.3)"><tspan x="0 7.8979998 16.587999 23.287001" y="0" style="font-size:11px;font-variant:normal;font-weight:400;writing-mode:lr-tb;fill:#1a1a1a;fill-opacity:1;fill-rule:nonzero;stroke:none;font-family:Liberation Sans;-inkscape-font-specification:LiberationSans">ROTL</tspan></text><path d="M96.8 42.7H86.7v32.4H107V42.7H96.8z" style="fill:#fff;fill-opacity:1;fill-rule:evenodd;stroke:none"/><path d="M96.8 42.7H86.7v32.4H107V42.7H96.8z" style="fill:none;stroke:#000;stroke-width:.70749998;stroke-linecap:butt;stroke-linejoin:round;stroke-miterlimit:10;stroke-opacity:1;stroke-dasharray:none"/><text transform="matrix(1 0 0 -1 93.5 55)"><tspan x="0" y="0" style="font-size:11px;font-variant:normal;font-weight:400;writing-mode:lr-tb;fill:#1a1a1a;fill-opacity:1;fill-rule:nonzero;stroke:none;font-family:Liberation Sans;-inkscape-font-specification:LiberationSans">T</tspan></text><path d="M327.6 61.2h-12.3" style="fill:none;stroke:#000;stroke-width:.69999999;stroke-linecap:butt;stroke-linejoin:miter;stroke-miterlimit:10;stroke-opacity:1;stroke-dasharray:none"/><path d="m306 61.2 9.8-3.3v6.5l-9.8-3.2z" style="fill:#000;fill-opacity:1;fill-rule:evenodd;stroke:none"/><path d="M327.6 61.2v-36M327.6 25.2H126M126 61.2v-36" style="fill:none;stroke:#000;stroke-width:.70749998;stroke-linecap:butt;stroke-linejoin:round;stroke-miterlimit:10;stroke-opacity:1;stroke-dasharray:none"/></g></svg>